<svg width="24" height="24" viewBox="0 0 24 24" fill="none" xmlns="http://www.w3.org/2000/svg">
<path d="M15.0566 21.1386C14.8815 21.1386 14.4947 21.1386 14.2904 20.8136L8.92678 15.1265C8.31379 14.4843 8 13.6255 8 12.5809C8 11.7452 8.2992 10.9019 8.88299 10.0739L14.3196 4.30176C14.5093 4.10833 14.7574 4 15.0201 4C15.2829 4 15.531 4.10833 15.7134 4.30176C16.0929 4.70411 16.0929 5.36954 15.7134 5.77189L10.3133 11.4976C9.74409 12.1012 9.74409 12.9059 10.3133 13.5094L15.7134 19.2352C16.0564 19.5988 16.0929 20.1714 15.8156 20.5737C15.7718 20.8213 15.6039 21.1386 15.0566 21.1386Z" fill="#3F3F3F"/>
</svg>
