<svg width="84" height="87" viewBox="0 0 84 87" fill="none" xmlns="http://www.w3.org/2000/svg">
<path d="M64.786 15.3633H56.791V64.0571H64.786V15.3633Z" fill="white"/>
<path d="M31.4395 29.7975V49.8771L56.7895 58.788L56.6095 20.7812L31.4395 29.7975Z" fill="#73D7FF"/>
<path d="M30.63 27.7812H11.25V51.7444H30.63V27.7812Z" fill="white"/>
<path d="M24.8705 72.171L21.1655 73.3301H18.2255L15.4505 71.7797L14.6855 52.543H24.8705V72.171Z" fill="#73D7FF"/>
<path d="M60.945 13C57.84 13 55.32 15.5288 55.32 18.6446V19.2467C55.32 19.5477 55.125 19.8036 54.855 19.909L32.475 27.6006C32.43 27.6157 32.385 27.6307 32.34 27.6608C32.31 27.6909 32.265 27.706 32.235 27.7361C32.13 27.7963 32.025 27.8114 31.905 27.8114C31.71 27.8114 31.53 27.7361 31.395 27.5856C30.285 26.3513 28.785 25.674 27.18 25.674H14.73C11.565 25.674 9 28.2479 9 31.4088V48.1318C9 50.5101 10.515 52.6625 12.765 53.4904C13.035 53.5958 13.215 53.8517 13.215 54.1377V68.2867C13.215 71.9896 16.215 74.985 19.89 74.985C23.565 74.985 26.565 71.9745 26.565 68.2867V62.7626C26.565 62.5518 26.655 62.3562 26.82 62.2207C26.94 62.1153 27.105 62.0702 27.255 62.0702C27.3 62.0702 27.345 62.0702 27.39 62.0852C28.125 62.2357 28.755 62.311 29.355 62.311C33.84 62.311 37.755 59.2705 38.88 54.9204C38.925 54.7397 39.045 54.5742 39.225 54.4839C39.33 54.4236 39.435 54.4086 39.555 54.4086C39.63 54.4086 39.705 54.4236 39.78 54.4387L54.855 59.6317C55.14 59.722 55.32 59.993 55.32 60.294V60.8961C55.32 64.0119 57.84 66.5407 60.945 66.5407C64.05 66.5407 66.57 64.0119 66.57 60.8961V18.6446C66.57 15.5288 64.05 13 60.945 13ZM23.745 68.3018C23.745 70.4392 22.02 72.1702 19.89 72.1702C17.76 72.1702 16.035 70.4392 16.035 68.3018V54.5742C16.035 54.1979 16.35 53.8818 16.725 53.8818H23.04C23.415 53.8818 23.73 54.1979 23.73 54.5742V68.3018H23.745ZM14.715 51.0369C13.125 51.0369 11.835 49.7424 11.835 48.1469V31.4088C11.835 29.8133 13.125 28.5188 14.715 28.5188H27.165C28.755 28.5188 30.045 29.8133 30.045 31.4088V48.1318C30.045 49.7274 28.755 51.0219 27.165 51.0219H14.715V51.0369ZM36.255 54.0323C36.225 54.0925 36.195 54.1527 36.165 54.2129L36.15 54.243C35.34 57.3287 32.565 59.4812 29.37 59.4812C28.65 59.4812 27.885 59.3307 27.03 59.0296C26.76 58.9393 26.565 58.6684 26.565 58.3824V54.6043C26.565 54.5892 26.565 54.5742 26.565 54.5591C26.565 54.1828 26.865 53.8667 27.24 53.8667C28.83 53.8517 30.3 53.1743 31.38 51.9701C31.515 51.8196 31.695 51.7444 31.89 51.7444C31.995 51.7444 32.115 51.7745 32.22 51.8196C32.265 51.8347 32.295 51.8648 32.325 51.8949C32.37 51.9099 32.415 51.94 32.46 51.9551L35.82 53.1141C36 53.1743 36.15 53.3098 36.225 53.4904C36.33 53.656 36.33 53.8517 36.255 54.0323ZM55.32 55.8386C55.32 56.0643 55.215 56.2751 55.035 56.4105C54.915 56.5009 54.78 56.546 54.63 56.546C54.555 56.546 54.48 56.531 54.405 56.5159L33.57 49.3511C33.51 49.336 33.45 49.2909 33.39 49.2607C33.075 49.035 32.88 48.6587 32.88 48.2522V31.3185C32.88 30.9272 33.075 30.5509 33.39 30.31C33.45 30.2649 33.51 30.2348 33.57 30.2197L54.405 23.0549C54.48 23.0248 54.555 23.0097 54.63 23.0097C54.765 23.0097 54.915 23.0549 55.035 23.1452C55.215 23.2807 55.32 23.4914 55.32 23.7021V55.8386ZM63.75 60.9111C63.75 62.4615 62.49 63.7109 60.96 63.7109C59.415 63.7109 58.17 62.4465 58.17 60.9111V18.6446C58.17 17.0942 59.43 15.8449 60.96 15.8449C62.505 15.8449 63.75 17.1093 63.75 18.6446V60.9111Z" fill="#003575"/>
<path d="M71.4753 24.2888H73.5753C74.3703 24.2888 75.0003 23.6566 75.0003 22.8739C75.0003 22.0912 74.3703 21.459 73.5903 21.459H71.4903C70.7103 21.459 70.0803 22.0912 70.0803 22.8739C70.0653 23.6566 70.6953 24.2888 71.4753 24.2888Z" fill="#003575"/>
<path d="M73.5901 29.9043H71.4901C70.7101 29.9043 70.0801 30.5365 70.0801 31.3192C70.0801 32.1019 70.7101 32.7341 71.4901 32.7341H73.5901C74.3701 32.7341 75.0001 32.1019 75.0001 31.3192C75.0001 30.5365 74.3701 29.9043 73.5901 29.9043Z" fill="#003575"/>
<path d="M73.5901 38.3633H71.4901C70.7101 38.3633 70.0801 38.9955 70.0801 39.7782C70.0801 40.5609 70.7101 41.1931 71.4901 41.1931H73.5901C74.3701 41.1931 75.0001 40.5609 75.0001 39.7782C75.0001 38.9955 74.3701 38.3633 73.5901 38.3633Z" fill="#003575"/>
<path d="M73.5901 46.8066H71.4901C70.7101 46.8066 70.0801 47.4388 70.0801 48.2215C70.0801 49.0043 70.7101 49.6365 71.4901 49.6365H73.5901C74.3701 49.6365 75.0001 49.0043 75.0001 48.2215C75.0001 47.4388 74.3701 46.8066 73.5901 46.8066Z" fill="#003575"/>
<path d="M73.5901 55.2656H71.4901C70.7101 55.2656 70.0801 55.8978 70.0801 56.6805C70.0801 57.4632 70.7101 58.0954 71.4901 58.0954H73.5901C74.3701 58.0954 75.0001 57.4632 75.0001 56.6805C75.0001 55.8978 74.3701 55.2656 73.5901 55.2656Z" fill="#003575"/>
<path d="M23.0547 34.1328H18.8397C18.0597 34.1328 17.4297 34.765 17.4297 35.5477C17.4297 36.3304 18.0597 36.9626 18.8397 36.9626H23.0547C23.8347 36.9626 24.4647 36.3304 24.4647 35.5477C24.4647 34.765 23.8347 34.1328 23.0547 34.1328Z" fill="#003575"/>
<path d="M23.0547 42.5781H18.8397C18.0597 42.5781 17.4297 43.2103 17.4297 43.993C17.4297 44.7757 18.0597 45.4079 18.8397 45.4079H23.0547C23.8347 45.4079 24.4647 44.7757 24.4647 43.993C24.4647 43.2254 23.8347 42.5781 23.0547 42.5781Z" fill="#003575"/>
</svg>
