<svg width="84" height="87" viewBox="0 0 84 87" fill="none" xmlns="http://www.w3.org/2000/svg">
<path d="M71.0173 61.8652H32.6445V68.1016H71.0173V61.8652Z" fill="white"/>
<path d="M75.5363 68.7539H28.1113V77.3766H75.5363V68.7539Z" fill="#73D7FF"/>
<path d="M21.0796 46.752L8.52734 59.2883V64.8247L10.4364 66.7338L15.6864 65.5883L27.2364 54.0383L21.0796 46.752Z" fill="#73D7FF"/>
<path d="M22.3047 47.3574L28.1115 53.1802L33.0274 48.2802L26.8547 42.1074L22.3047 47.3574Z" fill="white"/>
<path d="M27.666 41.5809L33.616 34.5332L39.7251 42.1059L33.6956 47.9127L27.666 41.5809Z" fill="#73D7FF"/>
<path d="M36.8938 37.1274L26.1074 32.5933L39.1847 17.3047L43.7029 29.3161L55.0142 35.1547L55.8097 37.4933L42.1915 49.9661L37.3392 39.1479L36.8938 37.1274Z" fill="white"/>
<path d="M42.1113 50.794L58.1 35.4258L63.5886 42.1076L48.3 57.3008L42.1113 50.794Z" fill="#73D7FF"/>
<path d="M23.8949 32.4173L39.7244 16.0627L32.5653 11.0195L17.5312 25.7832L23.8949 32.4173Z" fill="#73D7FF"/>
<path d="M13.2364 67.8318C11.5659 67.8318 10.0068 67.1795 8.82955 66.0023C7.65227 64.825 7 63.2659 7 61.5955C7 59.925 7.65227 58.3659 8.82955 57.1886L29.5909 36.4273C29.7818 36.2364 29.8455 35.9818 29.7818 35.7273C29.7182 35.4727 29.5273 35.2818 29.2727 35.2023C27.7295 34.7727 25.9795 34.4705 24.0705 34.3273H24.0545C23.9909 34.2955 23.9114 34.2795 23.8477 34.2636L23.7841 34.2477C23.6886 34.2318 23.5932 34.2 23.5455 34.1841C23.4977 34.1523 23.4182 34.1045 23.3386 34.0409L23.2909 33.9932C23.2273 33.9455 23.1636 33.9136 23.1 33.8659L23.0841 33.85L16.4023 27.1682C16.1159 26.8818 15.9568 26.5159 15.9568 26.1023C15.9568 25.7045 16.1159 25.3227 16.4023 25.0364L32.0409 9.39773C32.2795 9.15909 32.6614 9 33.0591 9C33.4568 9 33.8386 9.15909 34.125 9.44545L40.8068 16.1273C40.8068 16.1432 40.8227 16.1432 40.8227 16.1591C40.8545 16.2227 40.9023 16.2864 40.9341 16.35L40.9818 16.4136C41.0295 16.4773 41.0773 16.5409 41.0932 16.5886C41.125 16.6523 41.1409 16.7477 41.1727 16.8591C41.2045 16.9545 41.2364 17.0182 41.2523 17.0977V17.1136C42.2227 27.7091 47.2977 32.7841 57.6864 33.5795H57.7023C57.7659 33.6114 57.8455 33.6273 57.9091 33.6432L57.9727 33.6591C58.0841 33.675 58.1636 33.7068 58.2273 33.7227C58.275 33.7386 58.3386 33.8023 58.4182 33.8659L58.4818 33.9136C58.5455 33.9614 58.6091 33.9932 58.6727 34.0409L58.6886 34.0568L65.3705 40.7386C65.6568 41.025 65.8159 41.4068 65.8159 41.8045C65.8159 42.2023 65.6568 42.5841 65.3705 42.8705L49.7318 58.5091C49.4455 58.7955 49.0636 58.9545 48.6659 58.9545C48.2682 58.9545 47.8864 58.7955 47.6 58.5091L40.9341 51.8432C40.8864 51.7636 40.8545 51.7159 40.8068 51.6523C40.7114 51.5409 40.6318 51.4295 40.6 51.35C40.5841 51.3182 40.5682 51.2705 40.5682 51.2068L40.5364 51.0955C40.5205 51.0318 40.5045 50.9682 40.4727 50.9045C40.4727 50.8886 40.4568 50.8727 40.4568 50.8409C40.2818 48.9636 39.9795 47.2136 39.5341 45.6545C39.4705 45.4 39.2636 45.2091 39.0091 45.1455C38.9455 45.1295 38.8818 45.1295 38.8182 45.1295C38.6273 45.1295 38.4364 45.2091 38.2932 45.3523L17.6432 66.0023C16.4659 67.1795 14.9068 67.8318 13.2364 67.8318ZM20.7773 49.775C20.5864 49.775 20.3955 49.8545 20.2523 49.9977L10.9295 59.3205C9.67273 60.5773 9.67273 62.6295 10.9295 63.9023C11.5341 64.5068 12.3455 64.8568 13.2205 64.8568C14.0795 64.8568 14.9068 64.5227 15.5114 63.9023L24.8341 54.5795C24.9773 54.4364 25.0568 54.2614 25.0568 54.0545C25.0568 53.8636 24.9773 53.6727 24.8341 53.5295L21.2864 49.9818C21.1591 49.8545 20.9682 49.775 20.7773 49.775ZM57.6227 37.4932C57.4318 37.4932 57.2409 37.5727 57.0977 37.7159L44.625 50.1886C44.3386 50.475 44.3386 50.9364 44.625 51.2227L48.1727 54.7705C48.3159 54.9136 48.5068 54.9932 48.6977 54.9932C48.8886 54.9932 49.0795 54.9136 49.2227 54.7705L61.6955 42.2977C61.8386 42.1545 61.9023 41.9795 61.9023 41.7727C61.9023 41.5818 61.8227 41.3909 61.6955 41.2477L58.1477 37.7C58.0045 37.5727 57.8295 37.4932 57.6227 37.4932ZM26.3614 44.1909C26.1705 44.1909 25.9795 44.2705 25.8364 44.4136L23.4182 46.8318C23.1318 47.1182 23.1318 47.5795 23.4182 47.8659L26.9659 51.4136C27.1091 51.5568 27.2841 51.6364 27.4909 51.6364C27.6818 51.6364 27.8727 51.5568 28.0159 51.4136L30.4341 48.9955C30.7205 48.7091 30.7205 48.2477 30.4341 47.9614L26.8864 44.4136C26.7432 44.2705 26.5523 44.1909 26.3614 44.1909ZM38.2455 21.1545C38.0545 21.1545 37.8636 21.2341 37.7205 21.3614L28.3341 30.7477C28.1432 30.9386 28.0795 31.2091 28.1432 31.4636C28.2227 31.7182 28.4295 31.9091 28.6841 31.9727C36.3841 33.6909 40.9977 38.3364 42.7955 46.1636C42.8591 46.4182 43.05 46.625 43.3045 46.7045C43.3682 46.7205 43.4318 46.7364 43.5114 46.7364C43.7023 46.7364 43.8932 46.6568 44.0364 46.5136L53.4227 37.1273C53.6136 36.9364 53.6773 36.6659 53.6136 36.4114C53.5341 36.1568 53.3273 35.9659 53.0727 35.9023C45.3727 34.1841 40.7591 29.5386 38.9614 21.7114C38.8977 21.4568 38.7068 21.25 38.4523 21.1705C38.3727 21.1545 38.3091 21.1545 38.2455 21.1545ZM33.425 37.1273C33.2341 37.1273 33.0432 37.2068 32.9 37.35L28.9864 41.2636C28.8432 41.4068 28.7636 41.5818 28.7636 41.7886C28.7636 41.9795 28.8432 42.1705 28.9864 42.3136L32.5341 45.8614C32.6773 46.0045 32.8523 46.0841 33.0591 46.0841C33.25 46.0841 33.4409 46.0045 33.5841 45.8614L37.4659 41.9795C37.7045 41.7409 37.7523 41.3591 37.5614 41.0568C36.5909 39.5455 35.3341 38.2727 33.8386 37.2705C33.7114 37.1591 33.5682 37.1273 33.425 37.1273ZM33.0591 12.9295C32.8682 12.9295 32.6773 13.0091 32.5341 13.1364L20.0614 25.6091C19.775 25.8955 19.775 26.3568 20.0614 26.6432L23.6091 30.1909C23.7523 30.3341 23.9273 30.4136 24.1341 30.4136C24.325 30.4136 24.5159 30.3341 24.6591 30.1909L37.1318 17.7182C37.4182 17.4318 37.4182 16.9705 37.1318 16.6841L33.5841 13.1364C33.4409 13.0091 33.25 12.9295 33.0591 12.9295Z" fill="#003575"/>
<path d="M28.5892 79.0006C27.7619 79.0006 27.0938 78.3325 27.0938 77.5052V68.5643C27.0938 67.737 27.7619 67.0688 28.5892 67.0688H30.8165C31.2142 67.0688 31.5483 66.7347 31.5483 66.337V61.8665C31.5483 61.0393 32.2165 60.3711 33.0437 60.3711H40.1551C40.9824 60.3711 41.6506 61.0393 41.6506 61.8665C41.6506 62.6938 40.9824 63.362 40.1551 63.362H35.271C34.8733 63.362 34.5392 63.6961 34.5392 64.0938V66.3211C34.5392 66.7188 34.8733 67.0529 35.271 67.0529H68.7756C69.1733 67.0529 69.5074 66.7188 69.5074 66.3211V64.0938C69.5074 63.6961 69.1733 63.362 68.7756 63.362H54.3937C53.5665 63.362 52.8983 62.6938 52.8983 61.8665C52.8983 61.0393 53.5665 60.3711 54.3937 60.3711H71.0028C71.8301 60.3711 72.4983 61.0393 72.4983 61.8665V66.337C72.4983 66.7347 72.8324 67.0688 73.2301 67.0688H75.4574C76.2846 67.0688 76.9528 67.737 76.9528 68.5643V77.5052C76.9528 78.3325 76.2846 79.0006 75.4574 79.0006H28.5892ZM30.8324 70.0597C30.4347 70.0597 30.1006 70.3938 30.1006 70.7915V75.262C30.1006 75.6597 30.4347 75.9938 30.8324 75.9938H73.2619C73.6596 75.9938 73.9937 75.6597 73.9937 75.262V70.7915C73.9937 70.3938 73.6596 70.0597 73.2619 70.0597H30.8324Z" fill="#003575"/>
<path d="M68.7906 49.9665C68.3929 49.9665 68.011 49.8074 67.7247 49.5211C67.136 48.9324 67.136 47.9779 67.7247 47.4051L69.952 45.1779C70.2383 44.8915 70.6201 44.7324 71.0179 44.7324C71.4156 44.7324 71.7974 44.8915 72.0838 45.1779C72.3701 45.4642 72.5292 45.8461 72.5292 46.2438C72.5292 46.6415 72.3701 47.0233 72.0838 47.3097L69.8565 49.537C69.5701 49.8074 69.2042 49.9665 68.7906 49.9665Z" fill="#003575"/>
<path d="M70.1107 56.6628C69.2834 56.6628 68.6152 55.9946 68.6152 55.1673C68.6152 54.3401 69.2834 53.6719 70.1107 53.6719H73.2607C74.088 53.6719 74.7561 54.3401 74.7561 55.1673C74.7561 55.9946 74.088 56.6628 73.2607 56.6628H70.1107Z" fill="#003575"/>
</svg>
