<svg width="84" height="87" viewBox="0 0 84 87" fill="none" xmlns="http://www.w3.org/2000/svg">
<path d="M42.1429 59.75H26.9062V69.85H42.1429V59.75Z" fill="#73D7FF"/>
<path d="M60.8104 52.45H8.54004V59.1125H60.8104V52.45Z" fill="white"/>
<path d="M8.54004 17.35H30.5624L34.7441 21.525L38.8756 17.4H60.8104V52.25H39.6393L35.0195 56.85L30.2745 52.1125H8.54004V17.35Z" fill="#73D7FF"/>
<path d="M60.9104 16H41.5798C39.0758 16 36.6219 17.2875 35.0069 19.4625C34.8942 19.6 34.7314 19.6875 34.5436 19.6875C34.3558 19.6875 34.1931 19.6 34.0804 19.45C32.4653 17.2875 30.0115 16 27.5075 16H8.17686C7.52583 16 7 16.525 7 17.175V56.25C7 58.575 8.8905 60.4625 11.2192 60.4625H25.7547C26.0677 60.4625 26.3306 60.725 26.3306 61.0375C26.3306 66.0375 24.6029 67.925 23.8517 68.5125C23.7515 68.5875 23.6263 68.6375 23.5011 68.6375H18.7311C18.0801 68.6375 17.5542 69.1625 17.5542 69.8125C17.5542 70.4625 18.0801 70.9875 18.7311 70.9875H50.3687C51.0197 70.9875 51.5456 70.4625 51.5456 69.8125C51.5456 69.1625 51.0197 68.6375 50.3687 68.6375H45.5611C45.4359 68.6375 45.3107 68.6 45.2105 68.5125C44.4719 67.9375 42.7567 66.05 42.7567 61.0375C42.7567 60.725 43.0196 60.4625 43.3326 60.4625H57.8681C60.1968 60.4625 62.0873 58.575 62.0873 56.25V17.175C62.0873 16.525 61.5615 16 60.9104 16ZM9.36625 18.9375C9.36625 18.625 9.62917 18.3625 9.94216 18.3625H27.52C30.5248 18.3625 33.3668 21.2 33.3668 24.2V52.425C33.3668 52.65 33.2416 52.85 33.0413 52.9375C32.9661 52.975 32.8785 53 32.7909 53C32.6657 53 32.5405 52.9625 32.4403 52.875C30.9504 51.7125 29.2478 51.0875 27.52 51.0875H9.94216C9.62917 51.0875 9.36625 50.825 9.36625 50.5125V18.9375V18.9375ZM11.2192 58.1125C10.1926 58.1125 9.36625 57.275 9.36625 56.2625V54.0375C9.36625 53.725 9.62917 53.4625 9.94216 53.4625H27.52C29.7986 53.4625 32.0272 55.05 32.9536 57.3375C33.0287 57.5125 33.0037 57.7125 32.9035 57.875C32.7909 58.0375 32.6156 58.125 32.4278 58.125H11.2192V58.1125ZM41.7175 68.375C41.6174 68.55 41.4296 68.65 41.2292 68.65H27.858C27.6577 68.65 27.4699 68.55 27.3698 68.375C27.2696 68.2 27.2571 67.9875 27.3447 67.8125C28.2336 66.0375 28.6969 63.7625 28.6969 61.05C28.6969 60.7375 28.9598 60.475 29.2728 60.475H39.8145C40.1275 60.475 40.3904 60.7375 40.3904 61.05C40.3904 63.75 40.8411 66.025 41.7425 67.8125C41.8302 67.9875 41.8177 68.2 41.7175 68.375ZM59.721 56.2625C59.721 57.2875 58.8822 58.1125 57.8681 58.1125H36.672C36.4842 58.1125 36.2964 58.0125 36.1963 57.8625C36.0836 57.7 36.0711 57.5 36.1462 57.325C37.0727 55.05 39.3012 53.45 41.5798 53.45H59.1576C59.4706 53.45 59.7336 53.7125 59.7336 54.025V56.2625H59.721ZM59.721 50.525C59.721 50.8375 59.4581 51.1 59.1451 51.1H41.5798C39.8521 51.1 38.1619 51.7125 36.6595 52.8875C36.5593 52.9625 36.4341 53.0125 36.3089 53.0125C36.2213 53.0125 36.1337 52.9875 36.0585 52.95C35.8582 52.85 35.733 52.65 35.733 52.4375V24.2C35.733 21.2 38.575 18.3625 41.5798 18.3625H59.1576C59.4706 18.3625 59.7336 18.625 59.7336 18.9375V50.525H59.721Z" fill="#003575"/>
<path d="M16.9659 25.375H25.7549C26.4059 25.375 26.9317 24.85 26.9317 24.2C26.9317 23.55 26.4059 23.025 25.7549 23.025H16.9659C16.3149 23.025 15.7891 23.55 15.7891 24.2C15.7891 24.85 16.3149 25.375 16.9659 25.375Z" fill="#003575"/>
<path d="M15.213 32.4H27.52C28.171 32.4 28.6969 31.875 28.6969 31.225C28.6969 30.575 28.171 30.05 27.52 30.05H15.213C14.562 30.05 14.0361 30.575 14.0361 31.225C14.0361 31.8625 14.562 32.4 15.213 32.4Z" fill="#003575"/>
<path d="M15.213 46.4375H27.52C28.171 46.4375 28.6969 45.9125 28.6969 45.2625C28.6969 44.6125 28.171 44.0875 27.52 44.0875H15.213C14.562 44.0875 14.0361 44.6125 14.0361 45.2625C14.0361 45.9 14.562 46.4375 15.213 46.4375Z" fill="#003575"/>
<path d="M15.213 39.4125H27.52C28.171 39.4125 28.6969 38.8875 28.6969 38.2375C28.6969 37.5875 28.171 37.0625 27.52 37.0625H15.213C14.562 37.0625 14.0361 37.5875 14.0361 38.2375C14.0361 38.8875 14.562 39.4125 15.213 39.4125Z" fill="#003575"/>
<path d="M53.8745 30.0375H41.5675C40.9165 30.0375 40.3906 30.5625 40.3906 31.2125C40.3906 31.8625 40.9165 32.3875 41.5675 32.3875H53.8745C54.5255 32.3875 55.0514 31.8625 55.0514 31.2125C55.0514 30.5625 54.5255 30.0375 53.8745 30.0375Z" fill="#003575"/>
<path d="M48.6036 44.075H41.5675C40.9165 44.075 40.3906 44.6 40.3906 45.25C40.3906 45.9 40.9165 46.425 41.5675 46.425H48.6036C49.2547 46.425 49.7805 45.9 49.7805 45.25C49.7805 44.6 49.2547 44.075 48.6036 44.075Z" fill="#003575"/>
<path d="M53.8745 37.0625H41.5675C40.9165 37.0625 40.3906 37.5875 40.3906 38.2375C40.3906 38.8875 40.9165 39.4125 41.5675 39.4125H53.8745C54.5255 39.4125 55.0514 38.8875 55.0514 38.2375C55.0514 37.5875 54.5255 37.0625 53.8745 37.0625Z" fill="#003575"/>
<path d="M43.3321 25.375H52.1211C52.7721 25.375 53.2979 24.85 53.2979 24.2C53.2979 23.55 52.7721 23.025 52.1211 23.025H43.3321C42.6811 23.025 42.1553 23.55 42.1553 24.2C42.1553 24.85 42.6811 25.375 43.3321 25.375Z" fill="#003575"/>
<rect x="70" y="22" width="8" height="38" fill="white"/>
<path d="M76.8235 21.2625C76.5105 21.2625 76.2476 21 76.2476 20.6875V17.175C76.2476 16.525 75.7218 16 75.0708 16H71.5527C70.9017 16 70.3758 16.525 70.3758 17.175V20.6875C70.3758 21 70.1129 21.2625 69.7999 21.2625C69.1489 21.2625 68.623 21.7875 68.623 22.4375V59.2875C68.623 59.9375 69.1489 60.4625 69.7999 60.4625C70.1129 60.4625 70.3758 60.725 70.3758 61.0375V64.55C70.3758 65.2 70.9017 65.725 71.5527 65.725C71.8657 65.725 72.1286 65.9875 72.1286 66.3V69.8125C72.1286 70.4625 72.6544 70.9875 73.3055 70.9875C73.9565 70.9875 74.4823 70.4625 74.4823 69.8125V66.3C74.4823 65.9875 74.7452 65.725 75.0582 65.725C75.7093 65.725 76.2351 65.2 76.2351 64.55V61.0375C76.2351 60.725 76.498 60.4625 76.811 60.4625C77.462 60.4625 77.9879 59.9375 77.9879 59.2875V22.4375C78.0004 21.7875 77.4746 21.2625 76.8235 21.2625ZM75.6467 57.5375C75.6467 57.85 75.3838 58.1125 75.0708 58.1125H71.5527C71.2397 58.1125 70.9768 57.85 70.9768 57.5375V24.2C70.9768 23.8875 71.2397 23.625 71.5527 23.625H75.0708C75.3838 23.625 75.6467 23.8875 75.6467 24.2V57.5375Z" fill="#003575"/>
</svg>
