<svg width="84" height="87" viewBox="0 0 84 87" fill="none" xmlns="http://www.w3.org/2000/svg">
<path d="M50.1922 62.6562H32.7812V74.5117H50.1922V62.6562Z" fill="white"/>
<path d="M71.6404 14.3457H11.7617V62.0539H71.6404V14.3457Z" fill="#73D7FF"/>
<path d="M71.4256 14.5176H39.4961V38.4719H49.8052V45.8601L59.3697 38.4719H71.4256V14.5176Z" fill="white"/>
<path d="M39.2091 37.0687C39.2091 41.9226 36.6318 45.8601 33.4532 45.8601C30.2745 45.8601 27.6973 41.9226 27.6973 37.0687C27.6973 32.2148 30.2745 28.2773 33.4532 28.2773C36.6318 28.2917 39.2091 32.2148 39.2091 37.0687Z" fill="white"/>
<path d="M28.7562 50.2988C31.4766 52.5611 35.4284 52.5611 38.1632 50.2988L46.4964 55.1384L50.4768 55.8543V62.6554H15.8555V56.6561L19.7071 54.4225L25.8782 53.5061L28.7562 50.2988Z" fill="white"/>
<path d="M23.4161 76C22.6716 76 22.0702 75.3986 22.0702 74.6541C22.0702 73.9095 22.6716 73.3082 23.4161 73.3082H28.8857C29.0289 73.3082 29.172 73.2652 29.2866 73.165C30.1314 72.5064 32.1216 70.33 32.1216 64.6027C32.1216 64.2448 31.8209 63.9441 31.463 63.9441H14.8252C12.162 63.9441 10 61.782 10 59.1189V17.8252C10 15.162 12.162 13 14.8252 13H33.4675C34.212 13 34.8134 13.6014 34.8134 14.3459C34.8134 15.0905 34.212 15.6918 33.4675 15.6918H14.8252C13.6798 15.6918 12.7061 16.6655 12.7061 17.8109V59.1045C12.7061 59.4195 12.7777 59.7202 12.9352 60.0209C13.0498 60.25 13.2789 60.3932 13.5223 60.3932C13.5652 60.3932 13.5939 60.3932 13.6368 60.3789C13.9232 60.3359 14.1523 60.0925 14.1809 59.8061C14.8252 54.3366 17.3739 53.1768 19.3927 53.1768C23.1727 53.1768 24.805 51.9168 26.3227 49.7261C26.5805 49.3682 26.9957 49.1534 27.4252 49.1534C27.6973 49.1534 27.9693 49.2393 28.1984 49.3968C28.4991 49.5973 28.6852 49.9123 28.7568 50.2702C28.8141 50.6282 28.7425 50.9861 28.5277 51.2725C26.2082 54.58 23.6452 55.8686 19.3784 55.8686C18.4048 55.8686 17.1591 56.6704 16.8011 60.4934C16.7868 60.6795 16.8441 60.8657 16.973 60.9945C17.1018 61.1377 17.2736 61.2093 17.4598 61.2093H49.4323C49.6184 61.2093 49.7902 61.1377 49.9191 60.9945C50.048 60.8514 50.1052 60.6795 50.0909 60.4934C49.733 56.6704 48.4873 55.8686 47.5136 55.8686C43.2468 55.8686 40.6839 54.58 38.3643 51.2725C38.1639 50.9718 38.078 50.6139 38.1352 50.2702C38.1925 49.9123 38.393 49.6116 38.6936 49.3968C38.9227 49.2393 39.1948 49.1534 39.4668 49.1534C39.9107 49.1534 40.3259 49.3682 40.5693 49.7261C42.1014 51.9025 43.7193 53.1768 47.4993 53.1768C49.647 53.1768 52.3102 54.4655 52.7827 60.608C52.8114 60.9516 53.0977 61.2093 53.4414 61.2093H68.1318C69.3059 61.2093 70.2509 60.25 70.2509 59.0902V44.5C70.2509 43.7555 70.8523 43.1541 71.5968 43.1541C72.3414 43.1541 72.9427 43.7555 72.9427 44.5V59.1189C72.9427 61.782 70.7807 63.9441 68.1175 63.9441H51.5514C51.1934 63.9441 50.8927 64.2448 50.8927 64.6027C50.8927 70.3443 52.8543 72.5064 53.6991 73.165C53.8136 73.2509 53.9568 73.3082 54.1 73.3082H59.5839C60.3284 73.3082 60.9298 73.9095 60.9298 74.6541C60.9298 75.3986 60.3284 76 59.5839 76H29.4441H23.4161ZM35.472 63.9441C35.1141 63.9441 34.8134 64.2448 34.8134 64.6027C34.8134 67.6955 34.298 70.3014 33.267 72.3489C33.1668 72.5493 33.1811 72.7927 33.2957 72.9932C33.4102 73.1936 33.625 73.3082 33.8541 73.3082H49.1316C49.3607 73.3082 49.5755 73.1936 49.69 72.9932C49.8045 72.7927 49.8189 72.5493 49.7186 72.3489C48.702 70.3014 48.1723 67.6955 48.1723 64.6027C48.1723 64.2448 47.8716 63.9441 47.5136 63.9441H35.472Z" fill="#003575"/>
<path d="M47.5275 23.7387C46.783 23.7387 46.1816 23.1373 46.1816 22.3928C46.1816 21.6482 46.783 21.0469 47.5275 21.0469H63.6069C64.3514 21.0469 64.9528 21.6482 64.9528 22.3928C64.9528 23.1373 64.3514 23.7387 63.6069 23.7387H47.5275Z" fill="#003575"/>
<path d="M47.5275 31.7856C46.783 31.7856 46.1816 31.1842 46.1816 30.4397C46.1816 29.6951 46.783 29.0938 47.5275 29.0938H63.6069C64.3514 29.0938 64.9528 29.6951 64.9528 30.4397C64.9528 31.1842 64.3514 31.7856 63.6069 31.7856H47.5275Z" fill="#003575"/>
<path d="M49.5478 47.8648C49.3473 47.8648 49.1469 47.8218 48.9607 47.7359C48.5025 47.5068 48.2019 47.0343 48.2019 46.5189V40.4909C48.2019 40.133 47.9012 39.8323 47.5432 39.8323H45.5387C44.7941 39.8323 44.1928 39.2309 44.1928 38.4864C44.1928 37.7418 44.7941 37.1405 45.5387 37.1405H49.5621C50.3066 37.1405 50.908 37.7418 50.908 38.4864V42.338C50.908 42.5957 51.0512 42.8248 51.2803 42.9393C51.3662 42.9823 51.4664 43.0109 51.5666 43.0109C51.7098 43.0109 51.853 42.968 51.9819 42.8677L58.7687 37.4411C59.0121 37.255 59.3128 37.1405 59.6134 37.1405H69.0348C69.7507 37.1405 70.3234 36.5677 70.3234 35.8518V16.3648C70.3234 16.0068 70.0228 15.7061 69.6648 15.7061H41.5009C41.143 15.7061 40.8423 16.0068 40.8423 16.3648V24.4116C40.8423 25.1561 40.2409 25.7575 39.4964 25.7575C38.7519 25.7575 38.1505 25.1561 38.1505 24.4116V16.3648C38.1362 14.5034 39.6539 13 41.5009 13H69.6362C71.4975 13 73.0009 14.5034 73.0009 16.3648V35.8375C73.0009 38.0425 71.2112 39.8323 69.0062 39.8323H60.2864C60.1432 39.8323 59.9857 39.8895 59.8712 39.9755L50.3782 47.5784C50.1491 47.7502 49.8484 47.8648 49.5478 47.8648Z" fill="#003575"/>
<path d="M33.4539 47.8642C29.316 47.8642 26.0801 42.724 26.0801 36.1806C26.0801 27.9619 31.2346 27.0742 33.4539 27.0742C35.6733 27.0742 40.8278 27.9619 40.8278 36.1806C40.8421 42.724 37.6062 47.8642 33.4539 47.8642ZM33.4539 29.766C32.2942 29.766 28.7719 29.766 28.7719 36.1663C28.7719 40.9485 30.9626 45.1581 33.4539 45.1581C35.9453 45.1581 38.136 40.9629 38.136 36.1663C38.136 29.766 34.6137 29.766 33.4539 29.766Z" fill="#003575"/>
</svg>
