<svg width="84" height="87" viewBox="0 0 84 87" fill="none" xmlns="http://www.w3.org/2000/svg">
<path d="M48.1156 27.6926V73.2674H11.7188V13.6035L48.1156 27.6926Z" fill="#73D7FF"/>
<path d="M70.5937 40.1353L67.0857 35.7969H58.8528L54.6719 40.8082V59.8514L60.6426 63.9035H66.0691L71.4385 58.9207L70.5937 40.1353Z" fill="white"/>
<path d="M38.1348 50.5298V48.5396C38.1348 48.3391 38.2923 48.1816 38.4927 48.1816H40.483C40.6834 48.1816 40.8409 48.3391 40.8409 48.5396V50.5298C40.8409 50.7303 40.6834 50.8878 40.483 50.8878H38.4927C38.2923 50.8735 38.1348 50.716 38.1348 50.5298Z" fill="#003575"/>
<path d="M28.084 50.5298V48.5396C28.084 48.3391 28.2415 48.1816 28.4419 48.1816H30.4322C30.6326 48.1816 30.7901 48.3391 30.7901 48.5396V50.5298C30.7901 50.7303 30.6326 50.8878 30.4322 50.8878H28.4419C28.2558 50.8735 28.084 50.716 28.084 50.5298Z" fill="#003575"/>
<path d="M18.0469 50.5298V48.5396C18.0469 48.3391 18.2044 48.1816 18.4048 48.1816H20.3951C20.5955 48.1816 20.753 48.3391 20.753 48.5396V50.5298C20.753 50.7303 20.5955 50.8878 20.3951 50.8878H18.3905C18.2044 50.8735 18.0469 50.716 18.0469 50.5298Z" fill="#003575"/>
<path d="M38.1348 58.563V56.5728C38.1348 56.3723 38.2923 56.2148 38.4927 56.2148H40.483C40.6834 56.2148 40.8409 56.3723 40.8409 56.5728V58.563C40.8409 58.7635 40.6834 58.921 40.483 58.921H38.4927C38.2923 58.921 38.1348 58.7635 38.1348 58.563Z" fill="#003575"/>
<path d="M28.084 58.563V56.5728C28.084 56.3723 28.2415 56.2148 28.4419 56.2148H30.4322C30.6326 56.2148 30.7901 56.3723 30.7901 56.5728V58.563C30.7901 58.7635 30.6326 58.921 30.4322 58.921H28.4419C28.2558 58.921 28.084 58.7635 28.084 58.563Z" fill="#003575"/>
<path d="M28.084 66.6099V64.6197C28.084 64.4192 28.2415 64.2617 28.4419 64.2617H30.4322C30.6326 64.2617 30.7901 64.4192 30.7901 64.6197V66.6099C30.7901 66.8104 30.6326 66.9679 30.4322 66.9679H28.4419C28.2558 66.9535 28.084 66.796 28.084 66.6099Z" fill="#003575"/>
<path d="M18.0469 58.563V56.5728C18.0469 56.3723 18.2044 56.2148 18.4048 56.2148H20.3951C20.5955 56.2148 20.753 56.3723 20.753 56.5728V58.563C20.753 58.7635 20.5955 58.921 20.3951 58.921H18.3905C18.2044 58.921 18.0469 58.7635 18.0469 58.563Z" fill="#003575"/>
<path d="M38.1348 34.4517V32.4615C38.1348 32.261 38.2923 32.1035 38.4927 32.1035H40.483C40.6834 32.1035 40.8409 32.261 40.8409 32.4615V34.4517C40.8409 34.6522 40.6834 34.8097 40.483 34.8097H38.4927C38.2923 34.7953 38.1348 34.6378 38.1348 34.4517Z" fill="#003575"/>
<path d="M28.084 34.4517V32.4615C28.084 32.261 28.2415 32.1035 28.4419 32.1035H30.4322C30.6326 32.1035 30.7901 32.261 30.7901 32.4615V34.4517C30.7901 34.6522 30.6326 34.8097 30.4322 34.8097H28.4419C28.2558 34.7953 28.084 34.6378 28.084 34.4517Z" fill="#003575"/>
<path d="M18.0469 34.4517V32.4615C18.0469 32.261 18.2044 32.1035 18.4048 32.1035H20.3951C20.5955 32.1035 20.753 32.261 20.753 32.4615V34.4517C20.753 34.6522 20.5955 34.8097 20.3951 34.8097H18.3905C18.2044 34.7953 18.0469 34.6378 18.0469 34.4517Z" fill="#003575"/>
<path d="M18.0469 26.4048V24.4146C18.0469 24.2141 18.2044 24.0566 18.4048 24.0566H20.3951C20.5955 24.0566 20.753 24.2141 20.753 24.4146V26.4048C20.753 26.6053 20.5955 26.7628 20.3951 26.7628H18.3905C18.2044 26.7628 18.0469 26.6053 18.0469 26.4048Z" fill="#003575"/>
<path d="M38.1348 42.4829V40.4927C38.1348 40.2923 38.2923 40.1348 38.4927 40.1348H40.483C40.6834 40.1348 40.8409 40.2923 40.8409 40.4927V42.4829C40.8409 42.6834 40.6834 42.8409 40.483 42.8409H38.4927C38.2923 42.8409 38.1348 42.6834 38.1348 42.4829Z" fill="#003575"/>
<path d="M28.084 42.4829V40.4927C28.084 40.2923 28.2415 40.1348 28.4419 40.1348H30.4322C30.6326 40.1348 30.7901 40.2923 30.7901 40.4927V42.4829C30.7901 42.6834 30.6326 42.8409 30.4322 42.8409H28.4419C28.2558 42.8409 28.084 42.6834 28.084 42.4829Z" fill="#003575"/>
<path d="M18.0469 42.4829V40.4927C18.0469 40.2923 18.2044 40.1348 18.4048 40.1348H20.3951C20.5955 40.1348 20.753 40.2923 20.753 40.4927V42.4829C20.753 42.6834 20.5955 42.8409 20.3951 42.8409H18.3905C18.2044 42.8409 18.0469 42.6834 18.0469 42.4829Z" fill="#003575"/>
<path d="M11.3459 75C10.6014 75 10 74.3986 10 73.6541V13.3459C10 12.902 10.2148 12.4868 10.587 12.2291C10.8161 12.0859 11.0739 12 11.3459 12C11.5177 12 11.6752 12.0286 11.8327 12.0859L48.0148 26.1607C48.5445 26.3611 48.8739 26.8623 48.8739 27.4207V71.6352C48.8739 71.9932 49.1745 72.2939 49.5325 72.2939H61.5884C61.9464 72.2939 62.2471 71.9932 62.2471 71.6352V65.6073C62.2471 65.2493 61.9464 64.9486 61.5884 64.9486C57.522 64.9486 54.2145 61.6411 54.2145 57.5748V41.4955C54.2145 37.4291 57.522 34.1216 61.5884 34.1216H65.6118C69.6782 34.1216 72.9857 37.4291 72.9857 41.4955V57.5748C72.9857 61.6411 69.6782 64.9486 65.6118 64.9486C65.2539 64.9486 64.9532 65.2493 64.9532 65.6073V71.6352C64.9532 71.9932 65.2539 72.2939 65.6118 72.2939H71.6398C72.3843 72.2939 72.9857 72.8952 72.9857 73.6398C72.9857 74.3843 72.3843 74.9857 71.6398 74.9857H11.3459V75ZM39.4955 64.2614C40.24 64.2614 40.8414 64.8627 40.8414 65.6073V71.6352C40.8414 71.9932 41.142 72.2939 41.5 72.2939H45.5234C45.8814 72.2939 46.182 71.9932 46.182 71.6352V28.7952C46.182 28.5232 46.0102 28.2798 45.7668 28.1795L13.5939 15.6798C13.5223 15.6511 13.4364 15.6225 13.3648 15.6225C13.2359 15.6225 13.107 15.6655 12.9925 15.737C12.8064 15.8659 12.7061 16.0664 12.7061 16.2955V71.6495C12.7061 72.0075 13.0068 72.3082 13.3648 72.3082H17.3882C17.7461 72.3082 18.0468 72.0075 18.0468 71.6495V65.6216C18.0468 64.877 18.6482 64.2757 19.3927 64.2757C20.1373 64.2757 20.7386 64.877 20.7386 65.6216V71.6495C20.7386 72.0075 21.0393 72.3082 21.3973 72.3082H37.4766C37.8345 72.3082 38.1352 72.0075 38.1352 71.6495V65.6216C38.1352 64.8627 38.7509 64.2614 39.4955 64.2614ZM63.6073 48.182C64.3518 48.182 64.9532 48.7834 64.9532 49.528V61.5839C64.9532 61.9418 65.2539 62.2425 65.6118 62.2425C68.1891 62.2425 70.2939 60.1377 70.2939 57.5605V41.4955C70.2939 38.9182 68.1891 36.8134 65.6118 36.8134H61.5884C59.0111 36.8134 56.9064 38.9182 56.9064 41.4955V57.5748C56.9064 60.152 59.0111 62.2568 61.5884 62.2568C61.9464 62.2568 62.2471 61.9561 62.2471 61.5982V49.5423C62.2614 48.7834 62.8627 48.182 63.6073 48.182Z" fill="#003575"/>
</svg>
