<svg width="48" height="48" viewBox="0 0 48 48" fill="none" xmlns="http://www.w3.org/2000/svg">
<path d="M20.8259 32C20.9791 32 21.3176 32 21.4965 31.7156L26.1908 26.7381C26.7273 26.1761 27.002 25.4244 27.002 24.5102C27.002 23.7788 26.7401 23.0406 26.2291 22.316L21.4709 17.2641C21.3049 17.0948 21.0877 17 20.8578 17C20.6279 17 20.4107 17.0948 20.251 17.2641C19.9189 17.6163 19.9189 18.1986 20.251 18.5508L24.9773 23.5621C25.4755 24.0903 25.4755 24.7946 24.9773 25.3228L20.251 30.3341C19.9509 30.6524 19.9189 31.1535 20.1616 31.5056C20.1999 31.7223 20.3468 32 20.8259 32Z" fill="black"/>
</svg>
