<svg width="125" height="48" viewBox="0 0 125 48" fill="none" xmlns="http://www.w3.org/2000/svg">
<path d="M37.0575 22.9062C32.8905 20.0702 27.5475 21.2269 24.7453 25.4906C22.4077 29.0526 18.8748 29.493 17.5051 29.493C13.0478 29.493 9.99395 26.3569 9.08893 23.1095C9.07925 23.0756 9.07441 23.0514 9.06473 23.0175C9.05505 22.9788 9.04537 22.945 9.03569 22.9062C8.6824 21.5511 8.59528 20.9074 8.59528 19.4652C8.59528 11.7024 16.5614 3.05868 28.0315 3.05868C39.7774 3.05868 46.4997 12.0024 48.2323 16.9728C48.2033 16.8857 48.1742 16.7985 48.1452 16.7114C44.8058 6.98851 35.5862 0 24.7356 0C11.078 0 0 11.0732 0 24.7356C0 36.9462 8.80823 47.3999 21.0236 47.3999C30.7659 47.3999 37.314 41.9359 40.3194 34.4102C41.9698 30.2916 40.8034 25.4471 37.0575 22.9062Z" fill="#003863"/>
<path d="M48.3817 17.4567C46.9347 12.6073 40.164 3.05859 28.026 3.05859C16.556 3.05859 8.58984 11.7023 8.58984 19.4651C8.58984 20.9025 8.67696 21.551 9.03026 22.9061C8.88022 22.3157 8.80279 21.7204 8.80279 21.1397C8.80279 13.0574 16.8996 7.45303 25.219 7.45303C36.4858 7.45303 45.6134 16.5855 45.6134 27.8475C45.6134 36.6799 40.5318 44.3218 33.1513 47.9902L33.1561 47.9951C42.6709 44.5492 49.4707 35.4313 49.4707 24.7307C49.4658 22.2044 49.1271 19.9685 48.3817 17.4567Z" fill="#E4032E"/>
<path d="M65.9263 31.0123V24.8708H68.2542V31.0123H71.5548V24.8708H73.9021V31.0123H79.7775V33.1612H61.5996V31.0123H65.9263ZM75.8573 27.5326V18.0468H63.066V15.8496H78.3159V27.5326H75.8573Z" fill="#575756"/>
<path d="M100.531 28.5734V34.6714H98.0722V30.6786H84.8163V28.5734H87.9621L87.9814 26.2697H83.8145V24.1402H101.992V26.2697H97.8012V28.5734H100.531ZM97.7818 18.9085C97.7818 19.528 97.6463 20.1136 97.3849 20.6605C97.1188 21.2074 96.7703 21.6962 96.3444 22.1221C95.8992 22.5189 95.3861 22.8432 94.7909 23.0852C94.2004 23.3271 93.5713 23.4481 92.9082 23.4481C92.2452 23.4481 91.6112 23.3271 91.0159 23.0852C90.4158 22.8432 89.8979 22.5189 89.4527 22.1221C89.0268 21.6962 88.6783 21.2074 88.4122 20.6605C88.146 20.1136 88.0153 19.528 88.0153 18.9085C88.0153 18.289 88.146 17.7034 88.4122 17.1565C88.6783 16.6097 89.0268 16.1208 89.4527 15.695C89.8979 15.2787 90.4158 14.9496 91.0159 14.7077C91.616 14.4657 92.2452 14.3398 92.9082 14.3398C93.5761 14.3398 94.2004 14.4608 94.7909 14.7077C95.3813 14.9496 95.8992 15.2787 96.3444 15.695C96.7703 16.1208 97.1188 16.6097 97.3849 17.1565C97.6463 17.7034 97.7818 18.289 97.7818 18.9085ZM90.2222 28.5734H95.541V26.2697H90.2416L90.2222 28.5734ZM95.3668 18.9085C95.3668 18.2455 95.1248 17.6792 94.6457 17.2146C94.1665 16.75 93.5858 16.5177 92.9034 16.5177C92.2258 16.5177 91.6402 16.75 91.1514 17.2146C90.6626 17.6792 90.4206 18.2455 90.4206 18.9085C90.4206 19.5764 90.6626 20.1426 91.1514 20.6169C91.6402 21.0912 92.221 21.3235 92.9034 21.3235C93.5858 21.3235 94.1665 21.0864 94.6457 20.6169C95.1248 20.1426 95.3668 19.5764 95.3668 18.9085Z" fill="#575756"/>
<path d="M106.246 27.3398H124.424V29.5128H116.555V34.6138H114.096V29.5128H106.251V27.3398H106.246ZM110.128 17.6749H120.523V15.168H122.962V24.6828H107.713V15.1728H110.128V17.6749ZM120.523 19.8044H110.128V22.5291H120.523V19.8044Z" fill="#575756"/>
</svg>
