<svg width="18" height="15" viewBox="0 0 18 15" fill="none" xmlns="http://www.w3.org/2000/svg">
<path d="M0 13.75C0 14.4404 0.559644 15 1.25 15H16.75C17.4404 15 18 14.4404 18 13.75V13.75C18 13.0596 17.4404 12.5 16.75 12.5H1.25C0.559644 12.5 0 13.0596 0 13.75V13.75ZM0 7.5C0 8.19036 0.559644 8.75 1.25 8.75H16.75C17.4404 8.75 18 8.19036 18 7.5V7.5C18 6.80964 17.4404 6.25 16.75 6.25H1.25C0.559644 6.25 0 6.80964 0 7.5V7.5ZM1.25 0C0.559644 0 0 0.559644 0 1.25V1.25C0 1.94036 0.559644 2.5 1.25 2.5H16.75C17.4404 2.5 18 1.94036 18 1.25V1.25C18 0.559644 17.4404 0 16.75 0H1.25Z" fill="#2E63C5"/>
</svg>
