<svg width="20" height="20" viewBox="0 0 20 20" fill="none" xmlns="http://www.w3.org/2000/svg">
<g clip-path="url(#clip0)">
<path d="M14.04 13.86C14.01 13.89 13.97 13.92 13.94 13.95C13.91 13.98 13.88 14.01 13.85 14.05C12.6 15.25 10.89 16 9 16C7.07 16 5.32 15.22 4.05 13.95C2.78 12.68 2 10.93 2 9C2 7.07 2.78 5.32 4.05 4.05C5.32 2.78 7.07 2 9 2C10.93 2 12.68 2.78 13.95 4.05C15.22 5.32 16 7.07 16 9C16 10.89 15.25 12.6 14.04 13.86ZM19.71 18.29L16.04 14.62C17.26 13.08 18 11.12 18 9C18 6.52 16.99 4.26 15.36 2.64C13.74 1.01 11.48 0 9 0C6.52 0 4.26 1.01 2.64 2.64C1.01 4.26 0 6.52 0 9C0 11.48 1.01 13.74 2.64 15.36C4.26 16.99 6.52 18 9 18C11.12 18 13.08 17.26 14.62 16.03L18.29 19.7C18.68 20.09 19.31 20.09 19.7 19.7C20.1 19.32 20.1 18.68 19.71 18.29Z" fill="black"/>
</g>
<defs>
<clipPath id="clip0">
<rect width="20" height="20" fill="white"/>
</clipPath>
</defs>
</svg>
