<svg width="42" height="42" viewBox="0 0 42 42" fill="none" xmlns="http://www.w3.org/2000/svg">
<path d="M15.019 20.1816C14.5817 20.1816 14.2266 20.5507 14.2266 21.0052C14.2266 21.4597 14.5817 21.8287 15.019 21.8287C15.4564 21.8287 15.8115 21.4597 15.8115 21.0052C15.8115 20.5507 15.4564 20.1816 15.019 20.1816Z" fill="#3CC44F"/>
<path d="M22.8432 21.8685C23.3142 21.8685 23.6961 21.4717 23.6961 20.9821C23.6961 20.4926 23.3142 20.0957 22.8432 20.0957C22.3721 20.0957 21.9902 20.4926 21.9902 20.9821C21.9902 21.4717 22.3721 21.8685 22.8432 21.8685Z" fill="#3CC44F"/>
<path d="M29.9263 12H13.0768C11.3771 12 10 13.4311 10 15.1975V25.5893C10 27.3557 11.3771 28.7868 13.0768 28.7868H19.0272L21.051 31.5697C21.051 31.5697 21.1906 32 21.5271 32C21.8637 32 22.0032 31.5697 22.0032 31.5697L24.027 28.7868H29.9232C31.6229 28.7868 33 27.3557 33 25.5893V15.1975C33.0031 13.4311 31.626 12 29.9263 12ZM17.2268 21.1863C17.2174 23.0865 15.327 23.1396 15.327 23.1396C14.5966 23.1396 14.1825 22.6368 14.1825 22.6368V22.9785H12.807V17.0799C12.8008 17.0783 12.8008 17.0783 12.807 17.0767V17.0799C12.8923 17.0944 14.1841 17.0767 14.1841 17.0767V19.333C14.5082 18.7592 15.4433 18.7689 15.4433 18.7689C17.4826 18.9655 17.2268 21.1863 17.2268 21.1863ZM19.6507 18.9494V22.9882H18.303V18.9913C18.303 18.4466 17.6532 18.2967 17.6532 18.2967V16.8865C19.8057 16.9767 19.6507 18.9494 19.6507 18.9494ZM22.8438 23.1429C21.5969 23.1429 20.5858 22.1759 20.5858 20.9817C20.5858 19.7874 21.5969 18.8205 22.8438 18.8205C24.0906 18.8205 25.1017 19.7874 25.1017 20.9817C25.1017 22.1759 24.0906 23.1429 22.8438 23.1429ZM30.2241 23.1429C30.2241 23.1429 30.2427 25.1945 28.2375 25.1945H27.6265V23.8649H27.9955C27.9955 23.8649 28.8392 23.9455 28.8299 22.5949C28.8299 22.5949 28.6655 23.1413 27.4822 23.1413C27.4822 23.1413 25.8058 23.0156 25.8058 21.3153V20.6706C25.8058 20.6706 25.8446 18.9075 27.6854 18.7673C27.6854 18.7673 28.4127 18.6867 28.8578 19.312V18.8785H30.2241V23.1429Z" fill="#3CC44F"/>
<path d="M28.0824 21.8494C28.5432 21.8494 28.9167 21.4612 28.9167 20.9823C28.9167 20.5034 28.5432 20.1152 28.0824 20.1152C27.6216 20.1152 27.248 20.5034 27.248 20.9823C27.248 21.4612 27.6216 21.8494 28.0824 21.8494Z" fill="#3CC44F"/>
</svg>
