<svg width="42" height="42" viewBox="0 0 42 42" fill="none" xmlns="http://www.w3.org/2000/svg">
<path d="M21 13.8C23.6667 13.8 23.9833 13.8083 25.0417 13.8583C27.75 13.9833 29.0167 15.2667 29.1417 17.9583C29.1917 19.0167 29.2 19.3333 29.2 22C29.2 24.6667 29.1917 24.9833 29.1417 26.0417C29.0167 28.7333 27.7583 30.0167 25.0417 30.1417C23.9833 30.1917 23.675 30.2 21 30.2C18.3333 30.2 18.0167 30.1917 16.9583 30.1417C14.2417 30.0167 12.9833 28.725 12.8583 26.0417C12.8083 24.9833 12.8 24.675 12.8 22C12.8 19.3333 12.8083 19.0167 12.8583 17.9583C12.9833 15.2667 14.25 13.9833 16.9583 13.8583C18.0167 13.8167 18.3333 13.8 21 13.8ZM21 12C18.2833 12 17.9417 12.0083 16.875 12.0583C13.25 12.225 11.225 14.2417 11.0583 17.875C11.0083 18.9417 11 19.2833 11 22C11 24.7167 11.0083 25.0583 11.0583 26.125C11.225 29.7583 13.2417 31.775 16.875 31.9417C17.9417 31.9917 18.2833 32 21 32C23.7167 32 24.0583 31.9917 25.125 31.9417C28.75 31.775 30.775 29.7583 30.9417 26.125C30.9917 25.0583 31 24.7167 31 22C31 19.2833 30.9917 18.9417 30.9417 17.875C30.775 14.25 28.7583 12.225 25.125 12.0583C24.0583 12.0083 23.7167 12 21 12ZM21 16.8667C18.1667 16.8667 15.8667 19.1667 15.8667 22C15.8667 24.8333 18.1667 27.1333 21 27.1333C23.8333 27.1333 26.1333 24.8333 26.1333 22C26.1333 19.1667 23.8333 16.8667 21 16.8667ZM21 25.3333C19.1583 25.3333 17.6667 23.8417 17.6667 22C17.6667 20.1583 19.1583 18.6667 21 18.6667C22.8417 18.6667 24.3333 20.1583 24.3333 22C24.3333 23.8417 22.8417 25.3333 21 25.3333ZM26.3417 15.4583C25.675 15.4583 25.1417 15.9917 25.1417 16.6583C25.1417 17.325 25.6833 17.8583 26.3417 17.8583C27.0083 17.8583 27.5417 17.325 27.5417 16.6583C27.5417 15.9917 27 15.4583 26.3417 15.4583Z" fill="#9937C3"/>
</svg>
