<svg width="30" height="30" viewBox="0 0 30 30" fill="none" xmlns="http://www.w3.org/2000/svg">
<path d="M15.5 9.35C17.5 9.35 17.7375 9.35625 18.5313 9.39375C20.5625 9.4875 21.5125 10.45 21.6063 12.4688C21.6438 13.2625 21.65 13.5 21.65 15.5C21.65 17.5 21.6438 17.7375 21.6063 18.5313C21.5125 20.55 20.5688 21.5125 18.5313 21.6063C17.7375 21.6438 17.5063 21.65 15.5 21.65C13.5 21.65 13.2625 21.6438 12.4688 21.6063C10.4313 21.5125 9.4875 20.5438 9.39375 18.5313C9.35625 17.7375 9.35 17.5063 9.35 15.5C9.35 13.5 9.35625 13.2625 9.39375 12.4688C9.4875 10.45 10.4375 9.4875 12.4688 9.39375C13.2625 9.3625 13.5 9.35 15.5 9.35ZM15.5 8C13.4625 8 13.2063 8.00625 12.4063 8.04375C9.6875 8.16875 8.16875 9.68125 8.04375 12.4063C8.00625 13.2063 8 13.4625 8 15.5C8 17.5375 8.00625 17.7938 8.04375 18.5938C8.16875 21.3188 9.68125 22.8313 12.4063 22.9563C13.2063 22.9938 13.4625 23 15.5 23C17.5375 23 17.7938 22.9938 18.5938 22.9563C21.3125 22.8313 22.8313 21.3188 22.9563 18.5938C22.9938 17.7938 23 17.5375 23 15.5C23 13.4625 22.9938 13.2063 22.9563 12.4063C22.8313 9.6875 21.3188 8.16875 18.5938 8.04375C17.7938 8.00625 17.5375 8 15.5 8ZM15.5 11.65C13.375 11.65 11.65 13.375 11.65 15.5C11.65 17.625 13.375 19.35 15.5 19.35C17.625 19.35 19.35 17.625 19.35 15.5C19.35 13.375 17.625 11.65 15.5 11.65ZM15.5 18C14.1187 18 13 16.8813 13 15.5C13 14.1187 14.1187 13 15.5 13C16.8813 13 18 14.1187 18 15.5C18 16.8813 16.8813 18 15.5 18ZM19.5063 10.5938C19.0063 10.5938 18.6063 10.9938 18.6063 11.4938C18.6063 11.9938 19.0125 12.3938 19.5063 12.3938C20.0063 12.3938 20.4063 11.9938 20.4063 11.4938C20.4063 10.9938 20 10.5938 19.5063 10.5938Z" fill="white"/>
</svg>
