<svg width="30" height="30" viewBox="0 0 30 30" fill="none" xmlns="http://www.w3.org/2000/svg">
<path d="M15.5 10.5822C14.9473 10.5822 14.4113 10.6534 13.8993 10.7881V9.65234V9.51595C13.8993 9.48678 13.896 9.45847 13.8902 9.42931C13.7879 8.0328 12.7349 7 11.4501 7C10.1644 7 9.11054 8.0328 9.00914 9.42931C9.00332 9.45847 9 14.2039 9 14.2039V17.2911C9 17.3125 9.00083 17.334 9.00083 17.3554C9.03491 21.0311 11.9313 24 15.5 24C19.0895 24 22 20.996 22 17.2911C22 13.5862 19.0895 10.5822 15.5 10.5822ZM15.5 22.9698C12.4615 22.9698 9.99815 20.4272 9.99815 17.2911V9.5657C9.99815 8.73105 10.6481 8.05424 11.4492 8.05424C12.2504 8.05424 12.9003 8.73019 12.9003 9.5657L12.8978 17.2242C12.8978 18.7091 14.0614 19.9812 15.5 19.9812C16.9386 19.9812 18.1047 18.7768 18.1047 17.292C18.1047 15.8071 16.9386 14.6027 15.5 14.6027C14.8958 14.6027 14.3406 14.8155 13.8993 15.1706V14.0194C14.3805 13.7681 14.9241 13.6257 15.5 13.6257C17.4614 13.6257 19.0513 15.2667 19.0513 17.2911C19.0513 19.3155 17.4614 20.9565 15.5 20.9565C13.5386 20.9565 11.9487 19.3155 11.9487 17.2911V9.51595C11.9487 9.26375 11.7252 9.02442 11.4492 9.02442C11.1733 9.02442 10.9498 9.26375 10.9498 9.51595V17.2911C10.9498 17.4095 10.9556 17.5253 10.9639 17.6411C11.1376 20.0704 13.1015 21.9867 15.5 21.9867C18.0124 21.9867 20.0494 19.8842 20.0494 17.2911C20.0494 14.698 18.0124 12.5955 15.5 12.5955C14.9365 12.5955 14.3971 12.7018 13.8993 12.8948V11.8569C14.4063 11.6982 14.9432 11.6124 15.5 11.6124C18.5385 11.6124 21.001 14.155 21.001 17.2911C21.001 20.4272 18.5385 22.9698 15.5 22.9698ZM13.8993 17.2911C13.8993 16.3784 14.6157 15.639 15.5 15.639C16.3835 15.639 17.1007 16.3784 17.1007 17.2911C17.1007 18.2038 16.3843 18.9432 15.5 18.9432C14.6157 18.9432 13.8993 18.2038 13.8993 17.2911Z" fill="white"/>
</svg>
