<svg width="42" height="42" viewBox="0 0 42 42" fill="none" xmlns="http://www.w3.org/2000/svg">
<path d="M22 15.6358C21.2348 15.6358 20.4925 15.7279 19.7837 15.9022V14.4324V14.2559C19.7837 14.2182 19.7791 14.1816 19.771 14.1438C19.6295 12.3366 18.1715 11 16.3924 11C14.6122 11 13.153 12.3366 13.0127 14.1438C13.0046 14.1816 13 20.3226 13 20.3226V24.3179C13 24.3456 13.0012 24.3734 13.0012 24.4012C13.0483 29.1579 17.0587 33 22 33C26.9701 33 31 29.1124 31 24.3179C31 19.5234 26.9701 15.6358 22 15.6358ZM22 31.6668C17.7929 31.6668 14.382 28.3764 14.382 24.3179V14.3203C14.382 13.2402 15.2819 12.3643 16.3913 12.3643C17.5006 12.3643 18.4005 13.2391 18.4005 14.3203L18.397 24.2313C18.397 26.1529 20.0081 27.7992 22 27.7992C23.9919 27.7992 25.6064 26.2406 25.6064 24.319C25.6064 22.3974 23.9919 20.8388 22 20.8388C21.1634 20.8388 20.3947 21.1141 19.7837 21.5737V20.084C20.4499 19.7587 21.2025 19.5744 22 19.5744C24.7158 19.5744 26.9171 21.6981 26.9171 24.3179C26.9171 26.9377 24.7158 29.0614 22 29.0614C19.2842 29.0614 17.0829 26.9377 17.0829 24.3179V14.2559C17.0829 13.9296 16.7733 13.6198 16.3913 13.6198C16.0092 13.6198 15.6997 13.9296 15.6997 14.2559V24.3179C15.6997 24.4711 15.7077 24.621 15.7192 24.7708C15.9597 27.9146 18.6789 30.3946 22 30.3946C25.4787 30.3946 28.2992 27.6737 28.2992 24.3179C28.2992 20.9621 25.4787 18.2412 22 18.2412C21.2198 18.2412 20.473 18.3788 19.7837 18.6286V17.2854C20.4856 17.08 21.229 16.969 22 16.969C26.2071 16.969 29.6168 20.2594 29.6168 24.3179C29.6168 28.3764 26.2071 31.6668 22 31.6668ZM19.7837 24.3179C19.7837 23.1367 20.7756 22.1798 22 22.1798C23.2232 22.1798 24.2163 23.1367 24.2163 24.3179C24.2163 25.499 23.2244 26.4559 22 26.4559C20.7756 26.4559 19.7837 25.499 19.7837 24.3179Z" fill="#3CC44F"/>
</svg>
