<svg width="30" height="30" viewBox="0 0 30 30" fill="none" xmlns="http://www.w3.org/2000/svg">
<path d="M17.6332 8H11.7184C11.3221 8 11 8.32206 11 8.71844V14.6146C11 15.011 11.3221 15.333 11.7184 15.333H14.4435C14.425 16.0329 14.1339 16.7978 13.7096 17.4759C13.2358 18.2377 12.2232 19.0831 12.2139 19.0893C12.1334 19.1668 12.0777 19.2535 12.0746 19.3773C12.0746 19.4702 12.121 19.5446 12.1768 19.6189L14.0781 21.7618C14.0781 21.7618 14.171 21.8578 14.2454 21.8764C14.3321 21.8981 14.4281 21.9012 14.4962 21.8485C17.788 19.303 18.2649 16.1103 18.3454 14.3823C18.3454 14.373 18.3454 8.71224 18.3454 8.71224C18.3516 8.32206 18.0295 8 17.6332 8Z" fill="white"/>
</svg>
