<svg width="42" height="42" viewBox="0 0 42 42" fill="none" xmlns="http://www.w3.org/2000/svg">
<path d="M32 15.0138C31.23 15.3538 30.3988 15.5892 29.5238 15.6938C30.4163 15.1621 31.0988 14.3251 31.4225 13.3226C30.5913 13.8108 29.6638 14.1682 28.6838 14.3687C27.8963 13.5231 26.7763 13 25.5425 13C22.76 13 20.7212 15.5892 21.3425 18.2744C17.7637 18.0913 14.5875 16.3826 12.4612 13.7846C11.3325 15.7113 11.875 18.2395 13.7912 19.521C13.0913 19.4949 12.4262 19.3031 11.84 18.9805C11.7962 20.9682 13.2225 22.8251 15.2962 23.2436C14.6925 23.4092 14.0275 23.4441 13.3537 23.3133C13.905 25.0221 15.4887 26.26 17.3787 26.2949C15.5675 27.7159 13.2837 28.3436 11 28.0733C12.9075 29.2938 15.1738 30 17.6063 30C25.6038 30 30.1275 23.2697 29.8475 17.2282C30.6875 16.6267 31.4225 15.8769 32 15.0138Z" fill="#59B4E8"/>
</svg>
