<svg width="42" height="42" viewBox="0 0 42 42" fill="none" xmlns="http://www.w3.org/2000/svg">
<path d="M25.9333 12H17.0759C16.4823 12 16 12.4823 16 13.0759V21.9054C16 22.499 16.4823 22.9813 17.0759 22.9813H21.1568C21.1289 24.0294 20.693 25.1748 20.0577 26.1904C19.3482 27.3312 17.8318 28.5972 17.8179 28.6065C17.6973 28.7224 17.6138 28.8522 17.6092 29.0377C17.6092 29.1769 17.6787 29.2882 17.7622 29.3995L20.6096 32.6085C20.6096 32.6085 20.7487 32.7523 20.86 32.7801C20.9898 32.8126 21.1336 32.8172 21.2356 32.7384C26.1651 28.9264 26.8793 24.1453 26.9999 21.5576C26.9999 21.5437 26.9999 13.0666 26.9999 13.0666C27.0091 12.4823 26.5269 12 25.9333 12Z" fill="#F8C513"/>
</svg>
