<svg width="30" height="30" viewBox="0 0 30 30" fill="none" xmlns="http://www.w3.org/2000/svg">
<path d="M10.5298 13.5352C10.2223 13.5352 9.97266 13.7848 9.97266 14.0923C9.97266 14.3997 10.2223 14.6494 10.5298 14.6494C10.8372 14.6494 11.0869 14.3997 11.0869 14.0923C11.0869 13.7848 10.8372 13.5352 10.5298 13.5352Z" fill="white"/>
<path d="M16.0293 14.6759C16.3605 14.6759 16.629 14.4074 16.629 14.0762C16.629 13.745 16.3605 13.4766 16.0293 13.4766C15.6982 13.4766 15.4297 13.745 15.4297 14.0762C15.4297 14.4074 15.6982 14.6759 16.0293 14.6759Z" fill="white"/>
<path d="M21.0089 8H9.1631C7.96816 8 7 8.96816 7 10.1631V17.1932C7 18.3881 7.96816 19.3563 9.1631 19.3563H13.3465L14.7693 22.7089C14.7693 22.7089 14.8674 23 15.104 23C15.3406 23 15.4387 22.7089 15.4387 22.7089L16.8615 19.3563H21.0068C22.2017 19.3563 23.1699 18.3881 23.1699 17.1932V10.1631C23.172 8.96816 22.2039 8 21.0089 8ZM12.0807 14.2146C12.0741 15.5 10.7451 15.536 10.7451 15.536C10.2316 15.536 9.94047 15.1958 9.94047 15.1958V15.427H8.9734V11.4365C8.96904 11.4355 8.96904 11.4355 8.9734 11.4344V11.4365C9.03336 11.4464 9.94156 11.4344 9.94156 11.4344V12.9608C10.1694 12.5726 10.8269 12.5792 10.8269 12.5792C12.2606 12.7122 12.0807 14.2146 12.0807 14.2146ZM13.7848 12.7013V15.4335H12.8373V12.7296C12.8373 12.3611 12.3805 12.2597 12.3805 12.2597V11.3057C13.8938 11.3668 13.7848 12.7013 13.7848 12.7013ZM16.0297 15.5382C15.1531 15.5382 14.4422 14.884 14.4422 14.0761C14.4422 13.2682 15.1531 12.614 16.0297 12.614C16.9062 12.614 17.6171 13.2682 17.6171 14.0761C17.6171 14.884 16.9062 15.5382 16.0297 15.5382ZM21.2183 15.5382C21.2183 15.5382 21.2314 16.9261 19.8216 16.9261H19.3921V16.0266H19.6515C19.6515 16.0266 20.2447 16.0811 20.2381 15.1675C20.2381 15.1675 20.1225 15.5371 19.2907 15.5371C19.2907 15.5371 18.1121 15.452 18.1121 14.3018V13.8657C18.1121 13.8657 18.1393 12.6729 19.4335 12.5781C19.4335 12.5781 19.9448 12.5235 20.2577 12.9466V12.6533H21.2183V15.5382Z" fill="white"/>
<path d="M19.7135 14.6634C20.0375 14.6634 20.3001 14.4008 20.3001 14.0768C20.3001 13.7528 20.0375 13.4902 19.7135 13.4902C19.3896 13.4902 19.127 13.7528 19.127 14.0768C19.127 14.4008 19.3896 14.6634 19.7135 14.6634Z" fill="white"/>
</svg>
