<?xml version="1.0" encoding="utf-8"?>
<!-- Generator: Adobe Illustrator 25.0.1, SVG Export Plug-In . SVG Version: 6.00 Build 0)  -->
<svg version="1.1" id="Layer_1" xmlns="http://www.w3.org/2000/svg" xmlns:xlink="http://www.w3.org/1999/xlink" x="0px" y="0px"
	 viewBox="0 0 42 42" style="enable-background:new 0 0 42 42;" xml:space="preserve">
<style type="text/css">
	.st0{fill:#FFFFFF;}
</style>
<path class="st0" d="M32,15c-0.8,0.3-1.6,0.6-2.5,0.7c0.9-0.5,1.6-1.4,1.9-2.4c-0.8,0.5-1.8,0.8-2.7,1c-0.8-0.8-1.9-1.4-3.1-1.4
	c-2.8,0-4.8,2.6-4.2,5.3c-3.6-0.2-6.8-1.9-8.9-4.5c-1.1,1.9-0.6,4.5,1.3,5.7c-0.7,0-1.4-0.2-2-0.5c0,2,1.4,3.8,3.5,4.3
	c-0.6,0.2-1.3,0.2-1.9,0.1c0.6,1.7,2.1,2.9,4,3c-1.8,1.4-4.1,2-6.4,1.8c1.9,1.2,4.2,1.9,6.6,1.9c8,0,12.5-6.7,12.2-12.8
	C30.7,16.6,31.4,15.9,32,15z"/>
</svg>
