<svg width="48" height="48" viewBox="0 0 48 48" fill="none" xmlns="http://www.w3.org/2000/svg">
<path d="M26.1761 32C26.0228 32 25.6843 32 25.5055 31.7156L20.8111 26.7381C20.2746 26.1761 20 25.4244 20 24.5102C20 23.7788 20.2619 23.0406 20.7728 22.316L25.531 17.2641C25.6971 17.0948 25.9142 17 26.1442 17C26.3741 17 26.5912 17.0948 26.7509 17.2641C27.083 17.6163 27.083 18.1986 26.7509 18.5508L22.0246 23.5621C21.5265 24.0903 21.5265 24.7946 22.0246 25.3228L26.7509 30.3341C27.0511 30.6524 27.083 31.1535 26.8403 31.5056C26.802 31.7223 26.6551 32 26.1761 32Z" fill="#fff"/>
</svg>
