<svg width="34" height="34" viewBox="0 0 34 34" fill="none" xmlns="http://www.w3.org/2000/svg">
<path d="M16.9929 33C14.1183 33 11.2842 32.2155 8.79918 30.7328C8.35432 30.4667 8.20745 29.8887 8.47352 29.4437C8.64273 29.1606 8.95137 28.985 9.28129 28.985C9.45051 28.985 9.61653 29.0307 9.76233 29.118C11.9568 30.4273 14.4568 31.1191 16.994 31.1191C18.6106 31.1191 20.207 30.8424 21.7384 30.2963C25.2888 29.0307 28.1336 26.458 29.7491 23.0518C31.3647 19.6456 31.5573 15.8148 30.2919 12.2638C29.0265 8.71287 26.4542 5.86764 23.0485 4.25184C21.1329 3.34281 19.1012 2.88191 17.0099 2.88191C15.3986 2.88191 13.8012 3.15973 12.2623 3.70898C8.71085 4.97459 5.86608 7.54732 4.25054 10.9524C2.63499 14.3586 2.44236 18.1895 3.70776 21.7404C3.79184 21.9767 3.77907 22.2322 3.67158 22.4589C3.56409 22.6857 3.37465 22.857 3.13732 22.9422C3.03515 22.9784 2.92873 22.9965 2.8223 22.9965C2.42533 22.9965 2.06987 22.7453 1.93684 22.3717C0.502216 18.3481 0.721453 14.0063 2.55198 10.1456C4.3825 6.28597 7.60721 3.37049 11.6301 1.93564C13.3734 1.31507 15.1837 1 17.011 1C19.3811 1 21.6842 1.52264 23.8542 2.55194C27.7132 4.38276 30.6282 7.60799 32.0628 11.6315C33.4974 15.6551 33.2793 19.9969 31.4477 23.8576C29.6172 27.7172 26.3924 30.6327 22.3695 32.0676C20.6337 32.686 18.8245 33 16.9929 33Z" fill="white"/>
<path d="M6.9985 17.5751C6.4478 17.5751 6 17.1273 6 16.5766C6 16.0259 6.4478 15.5781 6.9985 15.5781H23.8961C24.4468 15.5781 24.8946 16.0259 24.8946 16.5766C24.8946 17.1273 24.4468 17.5751 23.8961 17.5751H6.9985Z" fill="white"/>
<path d="M19.6481 25.1521C19.3812 25.1521 19.1302 25.0481 18.9413 24.8592C18.7525 24.6704 18.6484 24.4193 18.6484 24.1525C18.6484 23.8856 18.7525 23.6345 18.9413 23.4457L25.811 16.576L18.9413 9.70639C18.7525 9.51754 18.6484 9.26651 18.6484 8.99963C18.6484 8.73276 18.7525 8.48172 18.9413 8.29288C19.1302 8.10403 19.3812 8 19.6481 8C19.9149 8 20.166 8.10403 20.3548 8.29288L27.9313 15.8693C28.1201 16.0581 28.2241 16.3092 28.2241 16.576C28.2241 16.8429 28.1201 17.094 27.9313 17.2828L20.3548 24.8592C20.166 25.0481 19.9149 25.1521 19.6481 25.1521Z" fill="white"/>
</svg>
