<svg width="48" height="48" viewBox="0 0 48 48" fill="none" xmlns="http://www.w3.org/2000/svg">
<circle cx="24" cy="24" r="23" fill="white" stroke="#E2E5E9" stroke-width="2"/>
<g clip-path="url(#clip0)">
<path d="M29.67 35.15C29.43 35.15 28.9 35.15 28.62 34.73L21.27 27.38C20.43 26.55 20 25.44 20 24.09C20 23.01 20.41 21.92 21.21 20.85L28.66 13.39C28.92 13.14 29.26 13 29.62 13C29.98 13 30.32 13.14 30.57 13.39C31.09 13.91 31.09 14.77 30.57 15.29L23.17 22.69C22.39 23.47 22.39 24.51 23.17 25.29L30.57 32.69C31.04 33.16 31.09 33.9 30.71 34.42C30.65 34.74 30.42 35.15 29.67 35.15Z" fill="#97A9C2"/>
<path d="M29.6703 34.5895C29.4703 34.5895 29.1703 34.5895 29.0703 34.3895L21.6703 26.9895C20.8703 26.1895 20.5703 25.1895 20.5703 24.0895C20.5703 22.9895 21.0703 21.9895 21.6703 21.1895L29.0703 13.7895C29.3703 13.4895 29.8703 13.4895 30.1703 13.7895C30.4703 14.0895 30.4703 14.5895 30.1703 14.8895L22.7703 22.2895C21.7703 23.2895 21.7703 24.6895 22.7703 25.6895L30.1703 33.0895C30.4703 33.3895 30.4703 33.8895 30.1703 34.1895C30.1703 34.5895 29.8703 34.5895 29.6703 34.5895Z" fill="#97A9C2"/>
</g>
<defs>
<clipPath id="clip0">
<rect width="10.96" height="22.15" fill="white" transform="translate(20 13)"/>
</clipPath>
</defs>
</svg>
