<svg width="41" height="53" viewBox="0 0 41 53" fill="none" xmlns="http://www.w3.org/2000/svg">
<path d="M38.845 0H10C3.54 0 0 6 0 16V50.45C0 52.055 2.535 52.71 3.685 51.41C7.795 46.745 13.24 41.605 15.995 40H16.005C18.76 41.605 24.205 46.745 28.315 51.41C29.47 52.72 32 52.045 32 50.45V16C32 7.365 35.035 4 38.845 4C41.545 4 41.535 0 38.845 0ZM24.92 22.07L20.45 25.285L22.155 30.485C22.485 31.485 21.32 32.315 20.465 31.7L16 28.485L11.53 31.7C10.68 32.315 9.515 31.485 9.84 30.485L11.545 25.285L7.075 22.07C6.22 21.455 6.655 20.105 7.72 20.105H13.25L14.96 14.905C15.285 13.91 16.72 13.91 17.045 14.905L18.75 20.105H24.275C25.34 20.105 25.775 21.455 24.92 22.07Z" fill="#2E63C5"/>
</svg>
