<svg width="46" height="46" viewBox="0 0 46 46" fill="none" xmlns="http://www.w3.org/2000/svg">
<g clip-path="url(#clip0)">
<path d="M24.2091 40.3677H6.02955C5.81364 40.3677 5.63227 40.1864 5.63227 39.9705V10.8745C5.63227 10.6586 5.81364 10.4773 6.02955 10.4773H8.45636C8.67227 10.4773 8.85364 10.6586 8.85364 10.8745V12.0836C8.85364 12.5327 9.21636 12.8955 9.66545 12.8955H26.6359C27.085 12.8955 27.4477 12.5327 27.4477 12.0836V10.8745C27.4477 10.6586 27.6291 10.4773 27.845 10.4773H30.2718C30.4877 10.4773 30.6691 10.6586 30.6691 10.8745V20.5732C30.6691 21.0223 31.0318 21.385 31.4809 21.385C31.93 21.385 32.2927 21.0223 32.2927 20.5732V10.8745C32.2927 9.76045 31.3859 8.845 30.2632 8.845H27.8364C27.6205 8.845 27.4391 8.66364 27.4391 8.44773V7.23864C27.4391 6.78955 27.0764 6.42682 26.6273 6.42682H22.3264C22.1882 6.42682 22.05 6.34909 21.9809 6.22818C21.195 4.855 19.7268 4 18.1464 4C16.5745 4 15.0977 4.855 14.3032 6.22818C14.2341 6.34909 14.1045 6.42682 13.9577 6.42682H9.66545C9.21636 6.42682 8.85364 6.78955 8.85364 7.23864V8.44773C8.85364 8.66364 8.67227 8.845 8.45636 8.845H6.02955C4.90682 8.85364 4 9.76045 4 10.8745V39.9705C4 41.0932 4.90682 42 6.02955 42H24.2091C24.6582 42 25.0209 41.6373 25.0209 41.1882C25.0295 40.7391 24.6582 40.3677 24.2091 40.3677ZM10.4773 8.44773C10.4773 8.23182 10.6586 8.05045 10.8745 8.05045H14.735C15.0805 8.05045 15.3827 7.83455 15.5036 7.50636C15.9009 6.38364 16.9718 5.62364 18.1464 5.62364C19.3295 5.62364 20.3918 6.38364 20.7891 7.50636C20.9014 7.83455 21.2123 8.05045 21.5577 8.05045H25.4182C25.6341 8.05045 25.8155 8.23182 25.8155 8.44773V10.8745C25.8155 11.0905 25.6341 11.2718 25.4182 11.2718H10.8745C10.6586 11.2718 10.4773 11.0905 10.4773 10.8745V8.44773Z" fill="#303030"/>
<path d="M27.4482 19.3646C27.4482 18.9155 27.0855 18.5527 26.6364 18.5527H19.3646C18.9155 18.5527 18.5527 18.9155 18.5527 19.3646C18.5527 19.8136 18.9155 20.1764 19.3646 20.1764H26.6364C27.0855 20.1764 27.4482 19.8136 27.4482 19.3646Z" fill="#303030"/>
<path d="M22.6032 26.636C22.6032 26.1869 22.2405 25.8242 21.7914 25.8242H19.3646C18.9155 25.8242 18.5527 26.1869 18.5527 26.636C18.5527 27.0851 18.9155 27.4479 19.3646 27.4479H21.7914C22.2405 27.4479 22.6032 27.0851 22.6032 26.636Z" fill="#303030"/>
<path d="M19.3646 33.0957C18.9155 33.0957 18.5527 33.4584 18.5527 33.9075C18.5527 34.3566 18.9155 34.7193 19.3646 34.7193H20.5736C21.0227 34.7193 21.3855 34.3566 21.3855 33.9075C21.3855 33.4584 21.0227 33.0957 20.5736 33.0957H19.3646Z" fill="#303030"/>
<path d="M16.2112 16.2891C16.073 16.1855 15.9003 16.125 15.7275 16.125C15.4685 16.125 15.2266 16.2459 15.0712 16.4532L12.273 20.1841C12.2039 20.2791 12.1003 20.3309 11.9794 20.3395C11.9707 20.3395 11.9621 20.3395 11.9535 20.3395C11.8498 20.3395 11.7462 20.2964 11.6685 20.2186L10.2348 18.785C10.0794 18.6295 9.8721 18.5432 9.65619 18.5432C9.44028 18.5432 9.233 18.6295 9.07755 18.785C8.758 19.1045 8.758 19.6227 9.07755 19.9336L11.4785 22.3259C11.4957 22.3345 11.5303 22.3605 11.5648 22.3864C11.5907 22.4036 11.608 22.4295 11.6166 22.4468C11.6253 22.4468 11.6339 22.4555 11.6425 22.4555C11.6685 22.4641 11.6944 22.4814 11.7203 22.49C11.7375 22.4986 11.7635 22.5159 11.7807 22.5245C11.7894 22.5332 11.798 22.5332 11.798 22.5332C11.9016 22.5677 11.9966 22.5936 12.0744 22.5936C12.178 22.5936 12.2903 22.5677 12.3939 22.5245C12.4025 22.5159 12.4112 22.5159 12.4198 22.5073C12.4457 22.49 12.4716 22.4727 12.4976 22.4555C12.5235 22.4382 12.5494 22.4209 12.5839 22.4036C12.6012 22.395 12.6185 22.3864 12.6357 22.3691C12.653 22.3518 12.6703 22.3173 12.6962 22.2914C12.7221 22.2655 12.7394 22.2482 12.7653 22.2309L16.3753 17.4205C16.5048 17.2477 16.5566 17.0318 16.5307 16.8159C16.5048 16.6086 16.3839 16.4186 16.2112 16.2891Z" fill="#303030"/>
<path d="M16.2112 23.5606C16.073 23.4569 15.9003 23.3965 15.7275 23.3965C15.4685 23.3965 15.2266 23.5174 15.0712 23.7247L12.273 27.4556C12.2039 27.5506 12.1003 27.6024 11.9794 27.611C11.9707 27.611 11.9621 27.611 11.9535 27.611C11.8498 27.611 11.7462 27.5678 11.6685 27.4901L10.2348 26.0565C10.0794 25.901 9.8721 25.8147 9.65619 25.8147C9.44028 25.8147 9.233 25.901 9.07755 26.0565C8.758 26.376 8.758 26.8942 9.07755 27.2051L11.4785 29.606C11.4957 29.6147 11.5303 29.6406 11.5648 29.6665C11.5907 29.6838 11.608 29.7097 11.6166 29.7269C11.6253 29.7269 11.6339 29.7356 11.6425 29.7356C11.6685 29.7442 11.6944 29.7615 11.7203 29.7701C11.7375 29.7788 11.7635 29.796 11.7807 29.8047C11.7894 29.8133 11.798 29.8133 11.798 29.8133C11.9016 29.8478 11.9966 29.8738 12.0744 29.8738C12.178 29.8738 12.2903 29.8478 12.3939 29.796C12.4025 29.7874 12.4112 29.7874 12.4198 29.7788C12.4457 29.7615 12.4716 29.7442 12.4976 29.7269C12.5235 29.7097 12.5494 29.6924 12.5839 29.6751C12.6012 29.6665 12.6185 29.6578 12.6357 29.6406C12.653 29.6233 12.6703 29.5888 12.6962 29.5628C12.7221 29.5369 12.7394 29.5197 12.7653 29.5024L16.3753 24.6919C16.5048 24.5192 16.5566 24.3033 16.5307 24.0874C16.5048 23.8801 16.3839 23.6901 16.2112 23.5606Z" fill="#303030"/>
<path d="M15.7275 30.6699C15.4685 30.6699 15.2266 30.7908 15.0712 30.9981L12.273 34.729C12.2039 34.824 12.1003 34.8758 11.9794 34.8845C11.9707 34.8845 11.9621 34.8845 11.9535 34.8845C11.8498 34.8845 11.7462 34.8413 11.6685 34.7636L10.2348 33.3299C10.0794 33.1745 9.8721 33.0881 9.65619 33.0881C9.44028 33.0881 9.233 33.1745 9.07755 33.3299C8.758 33.6495 8.758 34.1677 9.07755 34.4786L11.4785 36.8795C11.4957 36.8881 11.5303 36.914 11.5648 36.9399C11.5907 36.9572 11.608 36.9831 11.6166 37.0004C11.6253 37.0004 11.6339 37.009 11.6425 37.009C11.6685 37.0177 11.6944 37.0349 11.7203 37.0436C11.7375 37.0522 11.7635 37.0695 11.7807 37.0781C11.7894 37.0867 11.798 37.0867 11.798 37.0867C11.9016 37.1213 11.9966 37.1472 12.0744 37.1472C12.178 37.1472 12.2903 37.1213 12.3939 37.0781C12.4026 37.0695 12.4112 37.0695 12.4198 37.0608C12.4457 37.0436 12.4716 37.0263 12.4975 37.009C12.5235 36.9917 12.5494 36.9745 12.5839 36.9572C12.6012 36.9486 12.6185 36.9399 12.6357 36.9226C12.653 36.9054 12.6703 36.8708 12.6962 36.8449C12.7221 36.819 12.7394 36.8017 12.7653 36.7845L16.3753 31.974C16.5048 31.8013 16.5566 31.5854 16.5307 31.3695C16.4962 31.1536 16.3839 30.9636 16.2112 30.834C16.073 30.7304 15.9003 30.6699 15.7275 30.6699Z" fill="#303030"/>
<path d="M32.6978 23.3965C27.5678 23.3965 23.3965 27.5678 23.3965 32.6978C23.3965 37.8278 27.5678 41.9992 32.6978 41.9992C37.8278 41.9992 41.9992 37.8278 41.9992 32.6978C41.9992 27.5678 37.8278 23.3965 32.6978 23.3965ZM32.6978 40.3669C28.466 40.3669 25.0288 36.921 25.0288 32.6978C25.0288 28.466 28.4747 25.0288 32.6978 25.0288C36.9297 25.0288 40.3669 28.466 40.3669 32.6978C40.3669 36.9297 36.9297 40.3669 32.6978 40.3669Z" fill="#303030"/>
<path d="M37.5513 31.886H33.9154C33.6995 31.886 33.5182 31.7047 33.5182 31.4887V27.8528C33.5182 27.4037 33.1554 27.041 32.7064 27.041C32.2573 27.041 31.8945 27.4037 31.8945 27.8528V32.6978C31.8945 33.1469 32.2573 33.5096 32.7064 33.5096H37.56C38.0091 33.5096 38.3718 33.1469 38.3718 32.6978C38.3632 32.2487 38.0004 31.886 37.5513 31.886Z" fill="#303030"/>
<path d="M18.1557 8.88731C18.6048 8.88731 18.9675 8.52458 18.9675 8.07549C18.9675 7.6264 18.6048 7.26367 18.1557 7.26367C17.7066 7.26367 17.3439 7.6264 17.3439 8.07549C17.3353 8.51594 17.7066 8.88731 18.1557 8.88731Z" fill="#303030"/>
<path d="M31.4888 9.69141H5.17383V41.1796H31.4888V9.69141Z" fill="#73D7FF"/>
<path d="M40.8086 34.7914C41.8858 30.3114 39.1274 25.8065 34.6475 24.7292C30.1675 23.652 25.6625 26.4104 24.5853 30.8903C23.508 35.3703 26.2665 39.8752 30.7464 40.9525C35.2263 42.0297 39.7313 39.2713 40.8086 34.7914Z" fill="white"/>
<path d="M21.4808 7.61068C21.2045 6.02159 19.8313 4.8125 18.1645 4.8125C16.4977 4.8125 15.1158 6.02159 14.8481 7.61068H9.84766V11.8598H26.4727V7.61068H21.4808Z" fill="white"/>
<path d="M18.1458 8.88731C18.5949 8.88731 18.9576 8.52458 18.9576 8.07549C18.9576 7.6264 18.5949 7.26367 18.1458 7.26367C17.6967 7.26367 17.334 7.6264 17.334 8.07549C17.334 8.51594 17.6967 8.88731 18.1458 8.88731Z" fill="#003575"/>
<path d="M24.2091 40.3677H6.02955C5.81364 40.3677 5.63227 40.1864 5.63227 39.9705V10.8745C5.63227 10.6586 5.81364 10.4773 6.02955 10.4773H8.45636C8.67227 10.4773 8.85364 10.6586 8.85364 10.8745V12.0836C8.85364 12.5327 9.21636 12.8955 9.66545 12.8955H26.6359C27.085 12.8955 27.4477 12.5327 27.4477 12.0836V10.8745C27.4477 10.6586 27.6291 10.4773 27.845 10.4773H30.2718C30.4877 10.4773 30.6691 10.6586 30.6691 10.8745V20.5732C30.6691 21.0223 31.0318 21.385 31.4809 21.385C31.93 21.385 32.2927 21.0223 32.2927 20.5732V10.8745C32.2927 9.76045 31.3859 8.845 30.2632 8.845H27.8364C27.6205 8.845 27.4391 8.66364 27.4391 8.44773V7.23864C27.4391 6.78955 27.0764 6.42682 26.6273 6.42682H22.3264C22.1882 6.42682 22.05 6.34909 21.9809 6.22818C21.195 4.855 19.7268 4 18.1464 4C16.5745 4 15.0977 4.855 14.3032 6.22818C14.2341 6.34909 14.1045 6.42682 13.9577 6.42682H9.66545C9.21636 6.42682 8.85364 6.78955 8.85364 7.23864V8.44773C8.85364 8.66364 8.67227 8.845 8.45636 8.845H6.02955C4.90682 8.85364 4 9.76045 4 10.8745V39.9705C4 41.0932 4.90682 42 6.02955 42H24.2091C24.6582 42 25.0209 41.6373 25.0209 41.1882C25.0295 40.7391 24.6582 40.3677 24.2091 40.3677ZM10.4773 8.44773C10.4773 8.23182 10.6586 8.05045 10.8745 8.05045H14.735C15.0805 8.05045 15.3914 7.83455 15.5036 7.50636C15.9009 6.38364 16.9632 5.62364 18.155 5.62364C19.3382 5.62364 20.4005 6.38364 20.7977 7.50636C20.91 7.83455 21.2209 8.05045 21.5664 8.05045H25.4268C25.6427 8.05045 25.8241 8.23182 25.8241 8.44773V10.8745C25.8241 11.0905 25.6427 11.2718 25.4268 11.2718H10.8745C10.6586 11.2718 10.4773 11.0905 10.4773 10.8745V8.44773Z" fill="#003575"/>
<path d="M27.4482 19.3646C27.4482 18.9155 27.0855 18.5527 26.6364 18.5527H19.3646C18.9155 18.5527 18.5527 18.9155 18.5527 19.3646C18.5527 19.8136 18.9155 20.1764 19.3646 20.1764H26.6364C27.0855 20.1764 27.4482 19.8136 27.4482 19.3646Z" fill="#003575"/>
<path d="M22.6032 26.636C22.6032 26.1869 22.2405 25.8242 21.7914 25.8242H19.3646C18.9155 25.8242 18.5527 26.1869 18.5527 26.636C18.5527 27.0851 18.9155 27.4479 19.3646 27.4479H21.7914C22.2405 27.4479 22.6032 27.0851 22.6032 26.636Z" fill="#003575"/>
<path d="M19.3646 33.0957C18.9155 33.0957 18.5527 33.4584 18.5527 33.9075C18.5527 34.3566 18.9155 34.7193 19.3646 34.7193H20.5736C21.0227 34.7193 21.3855 34.3566 21.3855 33.9075C21.3855 33.4584 21.0227 33.0957 20.5736 33.0957H19.3646Z" fill="#003575"/>
<path d="M16.2112 16.2891C16.073 16.1855 15.9003 16.125 15.7275 16.125C15.4685 16.125 15.2266 16.2459 15.0712 16.4532L12.273 20.1841C12.2039 20.2791 12.1003 20.3309 11.9794 20.3395C11.9707 20.3395 11.9621 20.3395 11.9535 20.3395C11.8498 20.3395 11.7462 20.2964 11.6685 20.2186L10.2348 18.785C10.0794 18.6295 9.88073 18.5432 9.65619 18.5432C9.44028 18.5432 9.233 18.6295 9.07755 18.785C8.758 19.1045 8.758 19.6227 9.07755 19.9336L11.4785 22.3259C11.4957 22.3345 11.5303 22.3605 11.5648 22.3864C11.5907 22.4036 11.608 22.4295 11.6166 22.4468C11.6253 22.4555 11.6339 22.4555 11.6425 22.4641C11.6685 22.4727 11.6944 22.49 11.7203 22.4986C11.7462 22.5073 11.7635 22.5245 11.7807 22.5332C11.7894 22.5332 11.798 22.5418 11.798 22.5418C11.9016 22.5764 11.9966 22.6023 12.0744 22.6023C12.178 22.6023 12.2903 22.5764 12.3939 22.5332C12.4025 22.5245 12.4112 22.5245 12.4198 22.5159C12.4457 22.4986 12.4716 22.4814 12.4976 22.4641C12.5235 22.4468 12.5494 22.4295 12.5839 22.4123C12.6012 22.4036 12.6185 22.395 12.6357 22.3864C12.6444 22.3691 12.6703 22.3345 12.6962 22.3086C12.7221 22.2827 12.748 22.2568 12.7653 22.2482L16.3753 17.4377C16.5048 17.265 16.5566 17.0491 16.5307 16.8332C16.5048 16.6086 16.3839 16.4186 16.2112 16.2891Z" fill="#003575"/>
<path d="M16.2112 23.5606C16.073 23.4569 15.9003 23.3965 15.7275 23.3965C15.4685 23.3965 15.2266 23.5174 15.0712 23.7247L12.273 27.4556C12.2039 27.5506 12.1003 27.6024 11.9794 27.611C11.9707 27.611 11.9621 27.611 11.9535 27.611C11.8498 27.611 11.7462 27.5678 11.6685 27.4901L10.2348 26.0565C10.0794 25.901 9.88073 25.8147 9.65619 25.8147C9.44028 25.8147 9.233 25.901 9.07755 26.0565C8.758 26.376 8.758 26.8942 9.07755 27.2051L11.4785 29.5974C11.4957 29.606 11.5303 29.6319 11.5648 29.6578C11.5907 29.6751 11.608 29.701 11.6166 29.7183C11.6253 29.7269 11.6339 29.7269 11.6425 29.7269C11.6685 29.7356 11.6944 29.7528 11.7203 29.7615C11.7462 29.7701 11.7635 29.7874 11.7807 29.796C11.7894 29.8047 11.798 29.8047 11.798 29.8047C11.9016 29.8392 11.9966 29.8651 12.0744 29.8651C12.178 29.8651 12.2903 29.8392 12.3939 29.7874C12.4025 29.7788 12.4112 29.7788 12.4198 29.7701C12.4457 29.7528 12.4716 29.7356 12.4975 29.7183C12.5235 29.701 12.5494 29.6838 12.5839 29.6665C12.6012 29.6578 12.6185 29.6492 12.6357 29.6319C12.6444 29.6147 12.6703 29.5801 12.6875 29.5542C12.7135 29.5283 12.7394 29.5024 12.7566 29.4938L16.3666 24.6833C16.4962 24.5106 16.548 24.2947 16.5221 24.0788C16.5048 23.8801 16.3839 23.6901 16.2112 23.5606Z" fill="#003575"/>
<path d="M15.7275 30.6699C15.4685 30.6699 15.2266 30.7908 15.0712 30.9981L12.273 34.729C12.2039 34.824 12.1003 34.8758 11.9794 34.8845C11.9707 34.8845 11.9621 34.8845 11.9535 34.8845C11.8498 34.8845 11.7462 34.8413 11.6685 34.7636L10.2348 33.3299C10.0794 33.1745 9.88073 33.0881 9.65619 33.0881C9.44028 33.0881 9.233 33.1745 9.07755 33.3299C8.758 33.6495 8.758 34.1677 9.07755 34.4786L11.4785 36.8708C11.4957 36.8795 11.5303 36.9054 11.5648 36.9313C11.5907 36.9486 11.608 36.9745 11.6166 36.9917C11.6253 36.9917 11.6339 37.0004 11.6425 37.0004C11.6685 37.009 11.6944 37.0263 11.7203 37.0349C11.7462 37.0436 11.7635 37.0608 11.7807 37.0695C11.7894 37.0781 11.798 37.0781 11.798 37.0781C11.9016 37.1127 11.9966 37.1386 12.0744 37.1386C12.178 37.1386 12.2903 37.1127 12.3939 37.0695C12.4025 37.0608 12.4112 37.0608 12.4198 37.0522C12.4457 37.0349 12.4716 37.0177 12.4975 37.0004C12.5235 36.9831 12.5494 36.9658 12.5839 36.9486C12.6012 36.9399 12.6185 36.9313 12.6357 36.914C12.6444 36.8967 12.6703 36.8622 12.6875 36.8363C12.7135 36.8104 12.7394 36.7845 12.7566 36.7758L16.3666 31.9654C16.4962 31.7927 16.548 31.5767 16.5221 31.3608C16.4875 31.1449 16.3753 30.9549 16.2025 30.8254C16.073 30.7304 15.9003 30.6699 15.7275 30.6699Z" fill="#003575"/>
<path d="M32.6978 23.3965C27.5678 23.3965 23.3965 27.5678 23.3965 32.6978C23.3965 37.8278 27.5678 41.9992 32.6978 41.9992C37.8278 41.9992 41.9992 37.8278 41.9992 32.6978C41.9992 27.5678 37.8278 23.3965 32.6978 23.3965ZM32.6978 40.3669C28.466 40.3669 25.0288 36.921 25.0288 32.6978C25.0288 28.466 28.4747 25.0288 32.6978 25.0288C36.9297 25.0288 40.3669 28.466 40.3669 32.6978C40.3669 36.9297 36.9297 40.3669 32.6978 40.3669Z" fill="#003575"/>
<path d="M37.5513 31.886H33.9154C33.6995 31.886 33.5182 31.7047 33.5182 31.4887V27.8528C33.5182 27.4037 33.1554 27.041 32.7064 27.041C32.2573 27.041 31.8945 27.4037 31.8945 27.8528V32.6978C31.8945 33.1469 32.2573 33.5096 32.7064 33.5096H37.56C38.0091 33.5096 38.3718 33.1469 38.3718 32.6978C38.3632 32.2487 38.0004 31.886 37.5513 31.886Z" fill="#003575"/>
</g>
<defs>
<clipPath id="clip0">
<rect width="38" height="38" fill="white" transform="translate(4 4)"/>
</clipPath>
</defs>
</svg>
