<svg width="46" height="46" viewBox="0 0 46 46" fill="none" xmlns="http://www.w3.org/2000/svg">
<path d="M33.4953 26.4043H11.7773V40.8228H33.4953V26.4043Z" fill="white"/>
<path d="M11.7773 26.1134V17.835L15.573 11.7722L20.0815 9.51367H26.5566L31.1767 13.275L33.5039 18.2816V26.1134H11.7773Z" fill="#73D7FF"/>
<path d="M11.6059 27.1523H7.38086V40.4974H11.6059V27.1523Z" fill="#73D7FF"/>
<path d="M38.0474 27.1523H33.8223V40.4974H38.0474V27.1523Z" fill="#73D7FF"/>
<path d="M28.8157 31.1973H16.4668V36.0235H28.8157V31.1973Z" fill="#73D7FF"/>
<path d="M27.0034 18.0541L22.6738 13.7246L18.3443 18.0541L22.6738 22.3837L27.0034 18.0541Z" fill="white"/>
<path d="M16.6471 36.9583C16.2005 36.9583 15.8398 36.5976 15.8398 36.151V31.3248C15.8398 30.8783 16.2005 30.5176 16.6471 30.5176H28.704C29.1506 30.5176 29.5113 30.8783 29.5113 31.3248V36.151C29.5113 36.5976 29.1506 36.9583 28.704 36.9583H16.6471ZM17.8493 32.1406C17.6346 32.1406 17.4543 32.321 17.4543 32.5357V34.9488C17.4543 35.1635 17.6346 35.3438 17.8493 35.3438H27.4932C27.7079 35.3438 27.8882 35.1635 27.8882 34.9488V32.5357C27.8882 32.321 27.7079 32.1406 27.4932 32.1406H17.8493Z" fill="#003575"/>
<path d="M22.675 23.6997C22.4604 23.6997 22.2543 23.6138 22.0997 23.4592L17.2735 18.633C16.9557 18.3153 16.9557 17.8086 17.2735 17.4909L17.3422 17.4222C21.0434 13.6694 22.2972 12.3984 22.7094 12.3984C22.7695 12.3984 22.8468 12.4328 22.9842 12.4843C23.0872 12.5273 23.1731 12.5874 23.2504 12.6647L28.0766 17.4909C28.3944 17.8086 28.3944 18.3239 28.0766 18.633L23.2504 23.4592C23.0958 23.6138 22.8897 23.6997 22.675 23.6997ZM22.6579 14.5453C22.5548 14.5453 22.4518 14.5797 22.3745 14.657C21.5157 15.5157 20.2018 16.8296 19.2658 17.7828C19.1112 17.9374 19.1112 18.1865 19.2658 18.341L22.3917 21.4669C22.4689 21.5442 22.5634 21.5786 22.675 21.5786C22.7781 21.5786 22.8811 21.5356 22.9584 21.4669L26.0757 18.3496C26.2303 18.195 26.2303 17.946 26.0757 17.7914L22.9413 14.657C22.864 14.5797 22.7609 14.5453 22.6579 14.5453Z" fill="#003575"/>
<path d="M9.38186 41.9914C7.60423 41.9914 6.19587 40.3426 6.19587 38.565V28.9211C6.19587 27.779 6.83135 26.7055 7.84468 26.1302C7.93915 26.0786 8.00785 25.9928 8.03361 25.8897C8.05937 25.7867 8.0422 25.675 7.99067 25.5806C7.2092 24.2924 6.55655 22.8755 6.05847 21.3812C5.06231 18.3842 4.75316 15.3957 5.19971 12.9654C5.6205 10.6124 6.71113 9.0409 8.25689 8.52565C8.62615 8.40542 9.00401 8.34531 9.39904 8.34531C11.0307 8.34531 12.8083 9.41017 14.4228 11.351C14.4915 11.4368 14.5859 11.4884 14.6976 11.4884C14.7062 11.4884 14.7147 11.4884 14.7319 11.4884C14.8264 11.4884 14.9208 11.454 14.9981 11.3853C15.8912 10.5953 16.9046 9.96836 18.0124 9.52181C18.1584 9.46169 18.2614 9.31571 18.2614 9.15254V8.4226C18.2614 5.98373 20.2451 4 22.684 4C25.1229 4 27.1066 5.98373 27.1066 8.4226V9.16113C27.1066 9.32429 27.2011 9.47028 27.3556 9.5304C28.4549 9.96836 29.4768 10.5953 30.3699 11.3939C30.4386 11.454 30.533 11.4969 30.6361 11.4969C30.6447 11.4969 30.6533 11.4969 30.6704 11.4969C30.7735 11.4884 30.8765 11.4368 30.9453 11.3595C32.5511 9.41876 34.3373 8.3539 35.969 8.3539C36.364 8.3539 36.7419 8.41401 37.1111 8.53424C40.383 9.62486 41.3534 15.2755 39.3095 21.3898C38.8115 22.8841 38.1588 24.301 37.3773 25.5892C37.3258 25.6836 37.3086 25.7867 37.3344 25.8983C37.3602 26.0014 37.4289 26.0872 37.5233 26.1388C38.5367 26.7141 39.1721 27.7876 39.1721 28.9297V38.5736C39.1721 40.3512 37.6951 42 35.9175 42H9.38186V41.9914ZM35.9346 27.3153C35.0501 27.3153 34.3373 28.0366 34.3373 28.9125V38.5564C34.3373 39.4409 35.0587 40.1537 35.9346 40.1537C36.8191 40.1537 37.5319 39.4323 37.5319 38.5564V28.9211C37.5319 28.0366 36.8191 27.3153 35.9346 27.3153ZM12.8083 27.3153C12.6795 27.3153 12.5593 27.3754 12.482 27.487C12.4047 27.5901 12.3875 27.7275 12.4304 27.8477C12.5678 28.2255 12.628 28.5776 12.628 28.9211V38.565C12.628 38.9085 12.5593 39.2606 12.4304 39.6384C12.3875 39.7586 12.4047 39.896 12.482 39.9991C12.5593 40.1021 12.6795 40.1708 12.8083 40.1708H32.5425C32.6714 40.1708 32.7916 40.1107 32.8689 39.9991C32.9462 39.896 32.9633 39.7586 32.9204 39.6384C32.783 39.2606 32.7229 38.9085 32.7229 38.565V28.9211C32.7229 28.5776 32.7916 28.2255 32.9204 27.8477C32.9633 27.7275 32.9462 27.5901 32.8689 27.487C32.7916 27.384 32.6714 27.3153 32.5425 27.3153H12.8083ZM9.41621 27.3153C8.53169 27.3153 7.81892 28.0366 7.81892 28.9125V38.5564C7.81892 39.4409 8.54028 40.1537 9.41621 40.1537C10.2921 40.1537 11.0135 39.4323 11.0135 38.5564V28.9211C11.0135 28.0366 10.2921 27.3153 9.41621 27.3153ZM35.969 9.96836C34.7753 9.96836 33.3154 10.9473 31.9672 12.6477C31.8555 12.7851 31.8555 12.9826 31.9586 13.1286C32.4653 13.8156 32.9118 14.5885 33.2811 15.4301L33.324 15.5331C33.3584 15.6018 33.3841 15.6705 33.4185 15.7478C33.4958 15.9367 33.5645 16.1257 33.6246 16.3146C33.6761 16.4692 33.7276 16.6151 33.7791 16.7697C33.8307 16.9415 33.8822 17.1132 33.9251 17.285C33.9681 17.4481 34.011 17.6371 34.054 17.8432C34.0883 17.9977 34.1227 18.1609 34.1484 18.3155C34.1914 18.5473 34.2171 18.7792 34.2429 18.9939L34.2601 19.1313C34.2686 19.2172 34.2858 19.2945 34.2858 19.3803C34.3202 19.784 34.3373 20.1446 34.3373 20.4795V25.3058C34.3373 25.5205 34.5177 25.7008 34.7324 25.7008H35.1532C35.282 25.7008 35.4022 25.6407 35.4795 25.529C36.3984 24.198 37.1884 22.5921 37.7638 20.866C39.6359 15.2583 38.6655 10.7498 36.5873 10.0628C36.3898 10.0027 36.1837 9.96836 35.969 9.96836ZM15.1871 13.4893C14.1737 14.6572 13.418 16.0741 13.0144 17.6027C13.0058 17.6371 12.9972 17.6628 12.9886 17.6972C12.9886 17.7144 12.9801 17.7315 12.9801 17.7487C12.9028 18.0493 12.8512 18.2983 12.8083 18.5302C12.7911 18.6246 12.7825 18.7191 12.7654 18.805C12.7568 18.8479 12.7568 18.8994 12.7482 18.9424L12.731 19.0798C12.7138 19.2172 12.6881 19.3546 12.6795 19.492C12.6537 19.8269 12.6365 20.1618 12.6365 20.4881V25.3144C12.6365 25.529 12.8169 25.7094 13.0316 25.7094H32.3193C32.534 25.7094 32.7143 25.529 32.7143 25.3144V20.4881C32.7143 20.1618 32.6971 19.8269 32.6714 19.492C32.6628 19.3546 32.637 19.2172 32.6198 19.0798L32.6027 18.9424C32.5941 18.8994 32.5941 18.8479 32.5855 18.805C32.5769 18.7105 32.5597 18.616 32.5425 18.5302C32.4996 18.2983 32.4481 18.0579 32.3708 17.7573C32.3622 17.7401 32.3622 17.7229 32.3622 17.7058C32.3536 17.6714 32.345 17.6371 32.3364 17.6027C31.9242 16.0741 31.1685 14.6486 30.1552 13.4893C30.138 13.4635 30.1294 13.4377 30.1123 13.412C30.1037 13.4034 30.0951 13.3948 30.0951 13.3862C28.4033 11.4884 26.1534 10.4407 23.766 10.4407H21.5934C19.206 10.4407 16.9561 11.4884 15.2643 13.3862C15.2558 13.3948 15.2472 13.4034 15.2472 13.412C15.2214 13.4377 15.2042 13.4635 15.1871 13.4893ZM9.38186 9.96836C9.16717 9.96836 8.96107 10.0027 8.77214 10.0628C6.69395 10.7584 5.72355 15.2669 7.59565 20.866C8.17101 22.5835 8.96107 24.198 9.87994 25.529C9.95723 25.6321 10.0775 25.7008 10.2063 25.7008H10.6271C10.8417 25.7008 11.0221 25.5205 11.0221 25.3058V20.4795C11.0221 20.136 11.0393 19.7754 11.0736 19.3803C11.0822 19.2945 11.0908 19.2086 11.0994 19.1313L11.1165 18.9853C11.1423 18.7706 11.1681 18.5388 11.211 18.3069C11.2368 18.1523 11.2711 18.0063 11.3055 17.8518L11.3141 17.8346C11.357 17.6285 11.3999 17.4481 11.4429 17.285C11.4858 17.1132 11.5373 16.9415 11.5889 16.7697C11.6318 16.6151 11.6919 16.4692 11.7434 16.3146C11.8036 16.1342 11.8723 15.9367 11.9495 15.7478C11.9753 15.6791 12.0097 15.6104 12.044 15.5417L12.0869 15.4386C12.4562 14.5971 12.9028 13.8242 13.4094 13.1372C13.5125 12.9912 13.5125 12.7937 13.4008 12.6563C12.0354 10.9473 10.5755 9.96836 9.38186 9.96836ZM23.7575 8.82621C24.1439 8.82621 24.5475 8.85198 25.0284 8.92068C25.0456 8.92068 25.0628 8.92068 25.0799 8.92068C25.1744 8.92068 25.2689 8.88633 25.3376 8.82621C25.4234 8.74893 25.475 8.64588 25.475 8.52565V8.4226C25.475 6.87684 24.2126 5.61446 22.6668 5.61446C21.1211 5.61446 19.8587 6.87684 19.8587 8.4226V8.51706C19.8587 8.6287 19.9102 8.74034 19.9961 8.81763C20.0648 8.87774 20.1593 8.91209 20.2537 8.91209C20.2709 8.91209 20.2881 8.91209 20.3053 8.91209C20.7862 8.85198 21.1898 8.81763 21.5762 8.81763H23.7575V8.82621Z" fill="#003575"/>
</svg>
