<svg width="57" height="50" viewBox="0 0 57 50" fill="none" xmlns="http://www.w3.org/2000/svg">

<path d="M46.8743 7.11682H10.0193V16.4236H46.8743V7.11682Z" fill="#73D7FF"/>
<path d="M46.3248 17.6291H10.0193V42.0395V43.3336H45.0307C45.7486 43.3336 46.3248 42.7575 46.3248 42.0395V17.6291Z" fill="white"/>
<path d="M30.0777 30.4725L40.652 33.2291L38.4627 35.4184L43.5327 40.4884L40.0759 43.9452L34.7843 39.0968L32.4532 41.428L30.0777 30.4725Z" fill="#73D7FF"/>
<path d="M33.4814 25.1011H23.5275C21.932 25.1011 20.6291 26.4041 20.6291 27.9995C20.6291 29.5507 21.8611 30.8182 23.4034 30.8802H33.6055C35.1477 30.8182 36.3798 29.5507 36.3798 27.9995C36.3798 26.3952 35.0768 25.1011 33.4814 25.1011Z" fill="#73D7FF"/>
<path d="M45.013 6H11.987C10.427 6 9 7.25864 9 8.65023V41.6761C9 43.573 10.2852 45 11.987 45H26.0093C26.4702 45 26.8425 44.6277 26.8425 44.1668C26.8425 43.7059 26.4702 43.3336 26.0093 43.3336H11.987C11.2159 43.3336 10.6752 42.6511 10.6752 41.685V18.0368C10.6752 17.8152 10.8614 17.6291 11.083 17.6291H45.9259C46.1475 17.6291 46.3336 17.8152 46.3336 18.0368V35.4539C46.3336 35.9148 46.7059 36.287 47.1668 36.287C47.6277 36.287 48 35.9148 48 35.4539V8.65023C48 7.25864 46.573 6 45.013 6ZM46.3248 15.5461C46.3248 15.7677 46.1386 15.9539 45.917 15.9539H11.083C10.8614 15.9539 10.6752 15.7677 10.6752 15.5461V8.65909C10.6752 8.64136 10.6752 8.62364 10.6752 8.60591C10.7284 8.23364 11.278 7.67523 11.987 7.67523H45.013C45.722 7.67523 46.2716 8.22477 46.3248 8.59705C46.3248 8.61477 46.3248 8.6325 46.3248 8.65909V15.5461V15.5461Z" fill="#003575"/>
<path d="M14.8145 10.9814C14.3536 10.9814 13.9814 11.3536 13.9814 11.8145C13.9814 12.2755 14.3536 12.6477 14.8145 12.6477C15.2754 12.6477 15.6477 12.2755 15.6477 11.8145C15.6477 11.3536 15.2754 10.9814 14.8145 10.9814Z" fill="#003575"/>
<path d="M21.4977 10.9814C21.0368 10.9814 20.6646 11.3536 20.6646 11.8145C20.6646 12.2755 21.0368 12.6477 21.4977 12.6477C21.9586 12.6477 22.3309 12.2755 22.3309 11.8145C22.3309 11.3536 21.9586 10.9814 21.4977 10.9814Z" fill="#003575"/>
<path d="M18.1561 10.9814C17.6952 10.9814 17.323 11.3536 17.323 11.8145C17.323 12.2755 17.6952 12.6477 18.1561 12.6477C18.6171 12.6477 18.9893 12.2755 18.9893 11.8145C18.9893 11.3536 18.6171 10.9814 18.1561 10.9814Z" fill="#003575"/>
<path d="M23.5186 25.0923H33.4725C34.2968 25.0923 35.0768 25.4468 35.6264 26.0584C36.105 26.5902 36.3709 27.2727 36.3709 27.9907C36.3709 28.4516 36.7432 28.8239 37.2041 28.8239C37.665 28.8239 38.0373 28.4516 38.0373 27.9907C38.0373 26.865 37.6207 25.7748 36.8673 24.9416C35.9986 23.9755 34.7666 23.4259 33.4636 23.4259H23.5186C21.0014 23.4259 18.9539 25.4734 18.9539 27.9907C18.9539 30.508 21.0014 32.5555 23.5186 32.5555H24.7595C25.2204 32.5555 25.5927 32.1832 25.5927 31.7223C25.5927 31.2614 25.2204 30.8891 24.7595 30.8891H23.5186C21.9232 30.8891 20.6202 29.5861 20.6202 27.9907C20.6291 26.3952 21.9232 25.0923 23.5186 25.0923Z" fill="#003575"/>
<path d="M39.6416 35.8173C39.482 35.6577 39.482 35.4007 39.6416 35.2411L41.2902 33.5925C41.5029 33.3798 41.5827 33.0607 41.5029 32.7682C41.4232 32.4757 41.1838 32.2541 40.8913 32.1832L29.9359 29.6659C29.8738 29.6482 29.8118 29.6482 29.7498 29.6482C29.5282 29.6482 29.3066 29.7368 29.1559 29.8964C28.952 30.1002 28.8634 30.3927 28.9343 30.6764L31.4604 41.623C31.5313 41.9155 31.7529 42.1548 32.0454 42.2345C32.1252 42.2523 32.1961 42.27 32.2759 42.27C32.4975 42.27 32.7102 42.1814 32.8698 42.0218L34.5184 40.3732C34.5982 40.2934 34.7045 40.258 34.8109 40.258C34.9173 40.258 35.0236 40.2934 35.1034 40.3732L39.4909 44.7607C39.6327 44.9114 39.8366 45 40.0582 45C40.2798 45 40.4925 44.9114 40.652 44.7518L44.0202 41.3836C44.3482 41.0557 44.3482 40.5239 44.0202 40.2048L39.6416 35.8173ZM41.9638 41.0823L40.3507 42.6955C40.2709 42.7752 40.1645 42.8195 40.0582 42.8195C39.9518 42.8195 39.8454 42.7752 39.7657 42.6955L35.3782 38.308C35.2186 38.1484 35.0148 38.0598 34.7843 38.0598C34.5627 38.0598 34.35 38.1484 34.1904 38.308L33.2509 39.2475C33.1711 39.3273 33.0648 39.3716 32.9584 39.3716C32.9229 39.3716 32.8875 39.3627 32.8432 39.3539C32.7013 39.3095 32.595 39.1943 32.5595 39.0525L30.9818 32.2275C30.9463 32.0945 30.9907 31.9439 31.0882 31.8464C31.1679 31.7666 31.2743 31.7223 31.3807 31.7223C31.4073 31.7223 31.4427 31.7223 31.4693 31.7311L38.2943 33.3089C38.4361 33.3443 38.5513 33.4507 38.5957 33.5925C38.64 33.7343 38.5957 33.885 38.4893 33.9914L37.5498 34.9309C37.3902 35.0905 37.3016 35.3032 37.3016 35.5248C37.3016 35.7464 37.3902 35.9591 37.5498 36.1186L41.9373 40.5061C42.017 40.5859 42.0613 40.6834 42.0613 40.7986C42.0791 40.905 42.0348 41.0025 41.9638 41.0823Z" fill="#003575"/>
</svg>
