<svg width="46" height="46" viewBox="0 0 46 46" fill="none" xmlns="http://www.w3.org/2000/svg">
<g clip-path="url(#clip0)">
<path d="M38.1474 27.7746C39.0771 23.8704 36.6273 19.9608 32.6758 19.0423C28.7242 18.1238 24.7672 20.5442 23.8376 24.4484C22.9079 28.3526 25.3577 32.2622 29.3092 33.1807C33.2608 34.0991 37.2178 31.6788 38.1474 27.7746Z" fill="#73D7FF"/>
<path d="M30.9877 28.4766C32.3109 28.4766 33.3836 27.4167 33.3836 26.1094C33.3836 24.802 32.3109 23.7422 30.9877 23.7422C29.6645 23.7422 28.5918 24.802 28.5918 26.1094C28.5918 27.4167 29.6645 28.4766 30.9877 28.4766Z" fill="white"/>
<path d="M24.7323 31.4863L21.2695 38.2216L26.0342 37.6231L28.6471 41.2498L31.3595 34.05L27.1915 33.0049L24.7323 31.4863Z" fill="white"/>
<path d="M30.6445 34.2992L33.5196 40.9452L36.232 37.3274L40.8068 38.1671L37.1903 31.1191L33.9446 33.6024L30.6445 34.2992Z" fill="white"/>
<path d="M15.0491 12.7985C14.5789 12.7985 14.1992 12.4233 14.1992 11.9588C14.1992 11.4943 14.5789 11.1191 15.0491 11.1191H19.2261C19.6962 11.1191 20.076 11.4943 20.076 11.9588C20.076 12.4233 19.6962 12.7985 19.2261 12.7985H15.0491Z" fill="#003575"/>
<path d="M11.2424 17.8102C10.7723 17.8102 10.3926 17.435 10.3926 16.9705C10.3926 16.506 10.7723 16.1309 11.2424 16.1309H20.4916C20.9617 16.1309 21.3414 16.506 21.3414 16.9705C21.3414 17.435 20.9617 17.8102 20.4916 17.8102H11.2424Z" fill="#003575"/>
<path d="M11.2424 23.1696C10.7723 23.1696 10.3926 22.7944 10.3926 22.3299C10.3926 21.8654 10.7723 21.4902 11.2424 21.4902H20.4916C20.9617 21.4902 21.3414 21.8654 21.3414 22.3299C21.3414 22.7944 20.9617 23.1696 20.4916 23.1696H11.2424Z" fill="#003575"/>
<path d="M33.5282 41.9997C33.2389 41.9997 32.9767 41.8568 32.823 41.6245L31.1323 39.1233C31.0509 39.0072 30.9243 38.9357 30.7887 38.9357C30.7797 38.9357 30.7706 38.9357 30.7616 38.9357C30.6169 38.9447 30.4813 39.034 30.418 39.1591L29.2156 41.5262C29.0799 41.7942 28.8087 41.9729 28.5103 41.9907C28.4923 41.9907 28.4742 41.9907 28.4561 41.9907C28.1668 41.9907 27.9046 41.8478 27.7509 41.6156L25.6985 38.5963C25.6172 38.4802 25.4906 38.4087 25.355 38.4087C25.3188 38.4087 25.2917 38.4087 25.2555 38.4176L21.0423 39.4538C20.97 39.4717 20.9067 39.4806 20.8344 39.4806C20.5722 39.4806 20.3371 39.3645 20.1654 39.168C19.9574 38.9089 19.9212 38.5606 20.0659 38.2658L23.7999 30.8873C23.8632 30.7623 23.8541 30.6104 23.7818 30.4853C22.95 29.1633 22.5161 27.6447 22.5161 26.1083C22.5161 21.499 26.3133 17.7383 30.9876 17.7383C35.6529 17.7383 39.4592 21.49 39.4592 26.1083C39.4592 27.6447 39.0162 29.1633 38.1934 30.4853C38.1211 30.6104 38.1121 30.7623 38.1753 30.8873L41.9093 38.2658C42.054 38.5606 42.0178 38.9179 41.8099 39.168C41.6472 39.3645 41.403 39.4806 41.1409 39.4806C41.0685 39.4806 41.0052 39.4717 40.9329 39.4538L36.7197 38.4176C36.6836 38.4087 36.6564 38.4087 36.6203 38.4087C36.4847 38.4087 36.349 38.4712 36.2767 38.5963L34.2334 41.6245C34.0797 41.8568 33.8175 41.9997 33.5282 41.9997ZM36.7559 32.3612C36.6564 32.3612 36.557 32.397 36.4847 32.4595C35.5082 33.2813 34.3329 33.8887 33.0852 34.2014C32.9676 34.2282 32.8682 34.3086 32.8139 34.4158L31.72 36.5775C31.6567 36.7115 31.6657 36.8633 31.7471 36.9884L33.1846 39.1144C33.266 39.2305 33.3926 39.302 33.5282 39.302C33.6638 39.302 33.7994 39.2305 33.8718 39.1144L35.3545 36.9169C35.5172 36.6847 35.7794 36.5418 36.0597 36.5418C36.132 36.5418 36.1953 36.5507 36.2677 36.5686L38.6726 37.1581C38.7088 37.1671 38.7359 37.1671 38.7721 37.1671C38.8986 37.1671 39.0162 37.1135 39.0975 37.0152C39.197 36.8901 39.2151 36.7204 39.1428 36.5775L37.1175 32.5845C37.0633 32.4684 36.9548 32.388 36.8282 32.3612C36.8101 32.3612 36.783 32.3612 36.7559 32.3612ZM25.9155 36.5507C26.1958 36.5507 26.458 36.6936 26.6207 36.9259L27.9498 38.8911C28.0312 39.0072 28.1577 39.0787 28.2934 39.0787C28.2934 39.0787 28.3114 39.0787 28.3205 39.0787C28.4651 39.0697 28.6008 38.9804 28.664 38.8553L30.5898 35.0411C30.6531 34.916 30.6441 34.7731 30.5808 34.6569C30.5175 34.5408 30.3909 34.4604 30.2553 34.4515C28.4923 34.2996 26.8468 33.6207 25.4906 32.4774C25.4183 32.4148 25.3188 32.3791 25.2194 32.3791C25.1922 32.3791 25.1651 32.3791 25.138 32.388C25.0114 32.4148 24.9029 32.4952 24.8487 32.6113L22.8235 36.6043C22.7511 36.7472 22.7692 36.9169 22.8687 37.042C22.95 37.1403 23.0676 37.1939 23.1941 37.1939C23.2303 37.1939 23.2574 37.1939 23.2936 37.1849L25.6895 36.5954C25.7799 36.5596 25.8522 36.5507 25.9155 36.5507ZM30.9876 19.4266C27.2627 19.4266 24.2248 22.428 24.2248 26.1083C24.2248 29.7886 27.2627 32.79 30.9876 32.79C34.7126 32.79 37.7504 29.7886 37.7504 26.1083C37.7504 22.4191 34.7216 19.4266 30.9876 19.4266Z" fill="#003575"/>
<path d="M30.9881 29.4593C29.1166 29.4593 27.5977 27.9586 27.5977 26.1096C27.5977 24.2605 29.1256 22.7598 30.9881 22.7598C32.8596 22.7598 34.3785 24.2605 34.3785 26.1096C34.3785 27.9586 32.8596 29.4593 30.9881 29.4593ZM30.9881 24.4391C30.0569 24.4391 29.3064 25.1895 29.3064 26.1006C29.3064 27.0207 30.0659 27.7621 30.9881 27.7621C31.9193 27.7621 32.6697 27.0118 32.6697 26.1006C32.6788 25.1895 31.9193 24.4391 30.9881 24.4391Z" fill="#003575"/>
<path d="M4.84987 37.0512C4.37973 37.0512 4 36.6761 4 36.2116V4.83968C4 4.37518 4.37973 4 4.84987 4H33.5013C33.9715 4 34.3512 4.37518 34.3512 4.83968V13.6206C34.3512 14.0851 33.9715 14.4603 33.5013 14.4603C33.0312 14.4603 32.6514 14.0851 32.6514 13.6206V6.0992C32.6514 5.87588 32.4616 5.68829 32.2355 5.68829H6.12467C5.89864 5.68829 5.70878 5.87588 5.70878 6.0992V34.961C5.70878 35.1843 5.89864 35.3719 6.12467 35.3719H16.1061C16.5763 35.3719 16.956 35.7471 16.956 36.2116C16.956 36.6761 16.5763 37.0512 16.1061 37.0512H4.84987Z" fill="#003575"/>
</g>
<defs>
<clipPath id="clip0">
<rect width="38" height="38" fill="white" transform="translate(4 4)"/>
</clipPath>
</defs>
</svg>
