<svg width="46" height="46" viewBox="0 0 46 46" fill="none" xmlns="http://www.w3.org/2000/svg">
<path d="M23.0045 31.9348C30.8889 31.9348 37.2805 25.5432 37.2805 17.6588C37.2805 9.77438 30.8889 3.38281 23.0045 3.38281C15.1201 3.38281 8.72852 9.77438 8.72852 17.6588C8.72852 25.5432 15.1201 31.9348 23.0045 31.9348Z" fill="white"/>
<path d="M25.4694 27.1602H20.541V30.2427H25.4694V27.1602Z" fill="white"/>
<path d="M28.9613 30.6602H17.0586V34.4883H28.9613V30.6602Z" fill="#73D7FF"/>
<path d="M28.9613 34.752H17.0586V38.5801H28.9613V34.752Z" fill="#73D7FF"/>
<path d="M25.0586 38.7168H20.9395V41.7539H25.0586V38.7168Z" fill="white"/>
<path d="M23.0039 26.7776C27.6994 26.7776 31.5058 22.6943 31.5058 17.6574C31.5058 12.6204 27.6994 8.53711 23.0039 8.53711C18.3084 8.53711 14.502 12.6204 14.502 17.6574C14.502 22.6943 18.3084 26.7776 23.0039 26.7776Z" fill="#73D7FF"/>
<path d="M23.0041 43.0088C21.1218 43.0088 19.5942 41.4812 19.5942 39.599C19.5942 39.3716 19.4033 39.1807 19.1759 39.1807H18.5394C17.0118 39.1807 15.7661 37.9349 15.7661 36.4073C15.7661 35.8163 15.9661 35.2343 16.3389 34.7433C16.448 34.5978 16.448 34.3887 16.3389 34.2341C15.9661 33.7431 15.7661 33.1702 15.7661 32.5701C15.7661 31.0425 17.0118 29.7967 18.5394 29.7967H19.1759C19.4033 29.7967 19.5942 29.6058 19.5942 29.3785V27.3507C19.5942 27.178 19.4942 27.0234 19.3305 26.9597C15.6115 25.4503 13.2109 21.8858 13.2109 17.8849C13.2109 12.4837 17.6028 8.0918 23.0041 8.0918C28.4053 8.0918 32.7972 12.4837 32.7972 17.8849C32.7972 21.8858 30.3967 25.4503 26.6776 26.9597C26.5231 27.0234 26.4139 27.178 26.4139 27.3507V29.3785C26.4139 29.6058 26.6049 29.7967 26.8322 29.7967H27.4687C28.9963 29.7967 30.2421 31.0425 30.2421 32.5701C30.2421 33.1611 30.042 33.7431 29.6692 34.2341C29.5601 34.3796 29.5601 34.5887 29.6692 34.7433C30.042 35.2343 30.2421 35.8072 30.2421 36.4073C30.2421 37.9349 28.9963 39.1807 27.4687 39.1807H26.8322C26.6049 39.1807 26.4139 39.3716 26.4139 39.599C26.4139 41.4812 24.8863 43.0088 23.0041 43.0088ZM21.7311 39.1807C21.5037 39.1807 21.3128 39.3716 21.3128 39.599C21.3128 40.5355 22.0766 41.2903 23.0041 41.2903C23.9406 41.2903 24.6954 40.5264 24.6954 39.599C24.6954 39.3716 24.5044 39.1807 24.2771 39.1807H21.7311ZM18.5394 35.3525C17.9666 35.3525 17.4846 35.8345 17.4846 36.4073C17.4846 36.9802 17.9666 37.4621 18.5394 37.4621H27.4778C28.0507 37.4621 28.5326 36.9802 28.5326 36.4073C28.5326 35.8345 28.0507 35.3525 27.4778 35.3525H18.5394ZM18.5394 31.5244C17.9666 31.5244 17.4846 32.0063 17.4846 32.5792C17.4846 33.152 17.9666 33.634 18.5394 33.634H27.4778C28.0507 33.634 28.5326 33.152 28.5326 32.5792C28.5326 32.0063 28.0507 31.5244 27.4778 31.5244H18.5394ZM21.7311 27.6053C21.631 27.6053 21.531 27.6417 21.4583 27.7144C21.3673 27.7963 21.3128 27.9054 21.3128 28.0327V29.3966C21.3128 29.624 21.5037 29.8149 21.7311 29.8149H24.2862C24.5135 29.8149 24.7045 29.624 24.7045 29.3966V28.0327C24.7045 27.9145 24.6499 27.7963 24.559 27.7144C24.4862 27.6508 24.3862 27.6053 24.2862 27.6053C24.268 27.6053 24.2498 27.6053 24.2316 27.6053C23.7679 27.6599 23.3769 27.6872 23.0041 27.6872C22.6313 27.6872 22.2494 27.6599 21.7765 27.6053C21.7583 27.6053 21.7492 27.6053 21.7311 27.6053ZM23.0041 9.81946C18.5485 9.81946 14.9295 13.4385 14.9295 17.894C14.9295 22.3496 18.5576 25.9686 23.0041 25.9686C27.4505 25.9686 31.0786 22.3405 31.0786 17.894C31.0786 13.4476 27.4596 9.81946 23.0041 9.81946Z" fill="#003575"/>
<path d="M38.3264 8.54628C38.0991 8.54628 37.8808 8.45535 37.7172 8.29167C37.3807 7.95523 37.3807 7.40965 37.7172 7.08231L38.9902 5.80929C39.1539 5.64562 39.3721 5.55469 39.5994 5.55469C39.8267 5.55469 40.045 5.64562 40.2086 5.80929C40.5451 6.14573 40.5451 6.69131 40.2086 7.01866L38.9356 8.29167C38.7629 8.45535 38.5537 8.54628 38.3264 8.54628Z" fill="#003575"/>
<path d="M7.68212 8.54628C7.4548 8.54628 7.24566 8.45535 7.08199 8.29167L5.80897 7.01866C5.47253 6.68222 5.47253 6.13664 5.80897 5.80929C5.96355 5.64562 6.18178 5.55469 6.40911 5.55469C6.63643 5.55469 6.85466 5.64562 7.01834 5.80929L8.29135 7.08231C8.62779 7.41875 8.62779 7.96433 8.29135 8.29167C8.12768 8.45535 7.91854 8.54628 7.68212 8.54628Z" fill="#003575"/>
<path d="M6.41039 28.9701C6.18306 28.9701 5.96483 28.8792 5.80116 28.7155C5.46472 28.3791 5.46472 27.8335 5.80116 27.5061L7.07417 26.2331C7.23785 26.0694 7.45608 25.9785 7.6834 25.9785C7.91073 25.9785 8.12896 26.0694 8.29263 26.2331C8.62907 26.5696 8.62907 27.1151 8.29263 27.4425L7.01962 28.7155C6.85594 28.8792 6.63771 28.9701 6.41039 28.9701Z" fill="#003575"/>
<path d="M39.5994 28.9701C39.3721 28.9701 39.1539 28.8792 38.9902 28.7155L37.7172 27.4425C37.3807 27.106 37.3807 26.5605 37.7172 26.2331C37.8808 26.0694 38.0991 25.9785 38.3264 25.9785C38.5537 25.9785 38.772 26.0694 38.9356 26.2331L40.2086 27.5061C40.5451 27.8426 40.5451 28.3882 40.2086 28.7155C40.045 28.8792 39.8267 28.9701 39.5994 28.9701Z" fill="#003575"/>
<path d="M21.7311 21.3139C21.5038 21.3139 21.2856 21.2229 21.1219 21.0593L18.5668 18.5041C18.2303 18.1677 18.2303 17.6221 18.5668 17.2948C18.7305 17.1311 18.9487 17.0402 19.176 17.0402C19.4033 17.0402 19.6216 17.1311 19.7852 17.2948L21.4402 18.9497C21.522 19.0315 21.6311 19.0679 21.7402 19.0679C21.8493 19.0679 21.9585 19.0315 22.0403 18.9497L26.2413 14.7487C26.4049 14.5851 26.6141 14.4941 26.8505 14.4941C27.0778 14.4941 27.296 14.5851 27.4597 14.7487C27.7962 15.0852 27.7962 15.6308 27.4597 15.9581L22.3495 21.0684C22.1676 21.2229 21.9585 21.3139 21.7311 21.3139Z" fill="#003575"/>
<path d="M31.9433 29.5879C31.6887 29.5879 31.4432 29.4697 31.2796 29.2787C31.1341 29.1059 31.0704 28.8786 31.0886 28.6513C31.1068 28.424 31.2159 28.2148 31.3978 28.0693C34.4439 25.5506 36.1898 21.8497 36.1898 17.9034C36.1898 10.6381 30.2793 4.71857 23.0049 4.71857C15.7397 4.71857 9.82013 10.629 9.82013 17.9034C9.82013 21.8497 11.566 25.5597 14.6121 28.0784C14.7849 28.2239 14.894 28.4331 14.9213 28.6604C14.9395 28.8877 14.8758 29.1059 14.7303 29.2878C14.5667 29.4878 14.3212 29.597 14.0666 29.597C13.8665 29.597 13.6756 29.5333 13.521 29.3969C10.0747 26.5508 8.10156 22.368 8.10156 17.9034C8.11066 9.68334 14.794 3 23.0049 3C31.2159 3 37.8992 9.68334 37.8992 17.8943C37.8992 22.3589 35.9261 26.5417 32.4798 29.3878C32.3343 29.5151 32.1434 29.5879 31.9433 29.5879Z" fill="#003575"/>
<path d="M40.8723 18.7583C40.3995 18.7583 40.0176 18.3764 40.0176 17.9036C40.0176 17.4307 40.3995 17.0488 40.8723 17.0488H42.1453C42.6182 17.0488 43.0001 17.4307 43.0001 17.9036C43.0001 18.3764 42.6182 18.7583 42.1453 18.7583H40.8723Z" fill="#003575"/>
<path d="M3.85474 18.7576C3.3819 18.7576 3 18.3666 3 17.8938C3 17.421 3.3819 17.0391 3.85474 17.0391H5.12776C5.60059 17.0391 5.9825 17.421 5.9825 17.8938C5.9825 18.3666 5.60059 18.7485 5.12776 18.7485H3.85474V18.7576Z" fill="#003575"/>
</svg>
