<svg width="46" height="46" viewBox="0 0 46 46" fill="none" xmlns="http://www.w3.org/2000/svg">
<g clip-path="url(#clip0)">
<path d="M28.7929 13.8113V5.83398H7.11133V16.8794V39.9931H36.8424V16.8794V13.8113H28.7929Z" fill="#73D7FF"/>
<path d="M26.1821 28.6445L23.6309 31.1236V35.6318L27.7398 34.4291L29.9374 32.2936L26.1821 28.6445Z" fill="white"/>
<path d="M26.7891 28.3681L30.2413 31.7226L32.2873 29.7345L29.0793 26.6172L26.7891 28.3681Z" fill="#73D7FF"/>
<path d="M29.1641 26.0688L35.6306 19.7852L39.1165 23.1724L32.5321 29.5624L29.1641 26.0688Z" fill="white"/>
<path d="M29.1641 5.83388V13.8112H36.5316V11.9948L30.1576 5.79297L29.1641 5.83388Z" fill="white"/>
<path d="M7.9787 41C6.8841 41 6 40.1409 6 39.0773V6.92273C6 5.85909 6.8841 5 7.9787 5H29.7528C29.9633 5 30.1654 5.08182 30.317 5.22909L37.4066 12.1182C37.5582 12.2655 37.6424 12.4618 37.6424 12.6664V16.1109C37.6424 16.5364 37.2888 16.88 36.8509 16.88C36.4131 16.88 36.0594 16.5364 36.0594 16.1109V14.9655C36.0594 14.7609 35.8826 14.5891 35.6721 14.5891H29.5676C28.5909 14.5891 27.791 13.8118 27.791 12.8627V6.92273C27.791 6.71818 27.6142 6.54636 27.4037 6.54636H7.9787C7.7682 6.54636 7.59138 6.71818 7.59138 6.92273V39.0855C7.59138 39.29 7.7682 39.4618 7.9787 39.4618H35.6637C35.8742 39.4618 36.051 39.29 36.051 39.0855V31.0427C36.051 30.6173 36.4047 30.2736 36.8425 30.2736C37.2803 30.2736 37.634 30.6173 37.634 31.0427V39.0855C37.634 40.1409 36.7499 41.0082 35.6553 41.0082H7.9787V41ZM29.7528 7.02091C29.7023 7.02091 29.6518 7.02909 29.6013 7.05364C29.4581 7.11091 29.3655 7.25 29.3655 7.40545V12.6745C29.3655 12.8791 29.5423 13.0509 29.7528 13.0509H35.1753C35.3353 13.0509 35.47 12.9609 35.5374 12.8218C35.5963 12.6827 35.5627 12.5191 35.4532 12.4127L30.0307 7.12727C29.9549 7.05364 29.8539 7.02091 29.7528 7.02091Z" fill="#003575"/>
<path d="M20.2973 16.88C19.8595 16.88 19.5059 16.5363 19.5059 16.1109C19.5059 15.6854 19.8595 15.3418 20.2973 15.3418H25.0294C25.4672 15.3418 25.8209 15.6854 25.8209 16.1109C25.8209 16.5363 25.4672 16.88 25.0294 16.88H20.2973Z" fill="#003575"/>
<path d="M13.8891 21.4776C13.4513 21.4776 13.0977 21.134 13.0977 20.7085C13.0977 20.2831 13.4513 19.9395 13.8891 19.9395H28.5736C29.0115 19.9395 29.3651 20.2831 29.3651 20.7085C29.3651 21.134 29.0115 21.4776 28.5736 21.4776H13.8891Z" fill="#003575"/>
<path d="M13.8891 26.0675C13.4513 26.0675 13.0977 25.7238 13.0977 25.2984C13.0977 24.8729 13.4513 24.5293 13.8891 24.5293H23.85C24.2878 24.5293 24.6415 24.8729 24.6415 25.2984C24.6415 25.7238 24.2878 26.0675 23.85 26.0675H13.8891Z" fill="#003575"/>
<path d="M13.8891 30.6671C13.4513 30.6671 13.0977 30.3235 13.0977 29.898C13.0977 29.4725 13.4513 29.1289 13.8891 29.1289H20.3052C20.743 29.1289 21.0967 29.4725 21.0967 29.898C21.0967 30.3235 20.743 30.6671 20.3052 30.6671H13.8891Z" fill="#003575"/>
<path d="M13.8891 36.4015C13.4513 36.4015 13.0977 36.0578 13.0977 35.6324C13.0977 35.2069 13.4513 34.8633 13.8891 34.8633H19.118C19.5558 34.8633 19.9094 35.2069 19.9094 35.6324C19.9094 36.0578 19.5558 36.4015 19.118 36.4015H13.8891Z" fill="#003575"/>
<path d="M22.6628 36.4013C22.4523 36.4013 22.2502 36.3195 22.0987 36.1723C21.905 35.9841 21.8208 35.6977 21.8882 35.4441L23.067 30.8459C23.1007 30.7068 23.1764 30.5841 23.2775 30.4859L35.0992 18.9986C35.2507 18.8513 35.4528 18.7695 35.6633 18.7695C35.8738 18.7695 36.0759 18.8513 36.2275 18.9986L39.7723 22.4432C40.0838 22.7459 40.0838 23.2368 39.7723 23.5313L27.9506 35.0268C27.8495 35.125 27.7232 35.1986 27.5801 35.2313L22.8481 36.3768C22.7891 36.4013 22.7302 36.4013 22.6628 36.4013ZM26.2076 29.9868C26.1066 29.9868 26.0056 30.0277 25.9298 30.1013L24.6331 31.3613C24.5826 31.4104 24.5489 31.4677 24.5321 31.5332L23.909 33.9632C23.8753 34.0941 23.9174 34.225 24.01 34.3232C24.0858 34.3968 24.1868 34.4295 24.2879 34.4295C24.3216 34.4295 24.3468 34.4295 24.3805 34.4213L26.8812 33.8159C26.9486 33.7995 27.0075 33.7668 27.0581 33.7177L28.3547 32.4577C28.4305 32.3841 28.4642 32.2941 28.4642 32.1877C28.4642 32.0895 28.4221 31.9913 28.3547 31.9177L26.4771 30.0932C26.4097 30.0277 26.3087 29.9868 26.2076 29.9868ZM28.5737 27.6959C28.4726 27.6959 28.3716 27.7368 28.2958 27.8104L27.6054 28.4813C27.4538 28.6286 27.4538 28.8659 27.6054 29.0132L29.483 30.8377C29.5588 30.9113 29.6598 30.9523 29.7609 30.9523C29.8619 30.9523 29.963 30.9113 30.0387 30.8377L30.7292 30.1668C30.8807 30.0195 30.8807 29.7823 30.7292 29.635L28.8515 27.8104C28.7673 27.7286 28.6747 27.6959 28.5737 27.6959ZM35.6633 20.7986C35.5623 20.7986 35.4612 20.8395 35.3854 20.9132L29.963 26.1823C29.8114 26.3295 29.8114 26.5668 29.963 26.7141L31.8406 28.5386C31.9164 28.6123 32.0174 28.6532 32.1185 28.6532C32.2195 28.6532 32.3206 28.6123 32.3963 28.5386L37.8188 23.2695C37.9704 23.1223 37.9704 22.885 37.8188 22.7377L35.9412 20.9132C35.8654 20.8395 35.7643 20.7986 35.6633 20.7986Z" fill="#003575"/>
</g>
<defs>
<clipPath id="clip0">
<rect width="34" height="36" fill="white" transform="translate(6 5)"/>
</clipPath>
</defs>
</svg>
