<svg width="46" height="46" viewBox="0 0 46 46" fill="none" xmlns="http://www.w3.org/2000/svg">
<path d="M39.3416 17.0898H6.86624C6.35555 17.0898 5.94531 17.5001 5.94531 18.0108V39.2843C5.94531 39.795 6.35555 40.2052 6.86624 40.2052H39.35C39.8607 40.2052 40.2709 39.795 40.2709 39.2843V18.0108C40.2625 17.5001 39.8523 17.0898 39.3416 17.0898Z" fill="white"/>
<path d="M37.7518 26.4902H28.3164V29.6298H30.5434V32.7693H35.5666V29.6298H37.7518V26.4902Z" fill="#73D7FF"/>
<path d="M37.0647 33.1562H29.5215V36.2958H37.0647V33.1562Z" fill="white"/>
<path d="M39.8538 36.7637H26.4082V40.0204H39.8538V36.7637Z" fill="#73D7FF"/>
<path d="M40.2631 5.85352H5.9375V22.4972H40.2631V5.85352Z" fill="#73D7FF"/>
<path d="M16.5863 27.2871H10.123V35.5587H16.5863V27.2871Z" fill="#73D7FF"/>
<path d="M27.8718 41.0007C26.4653 41.0007 25.3184 39.8537 25.3184 38.4472V36.6807C25.3184 36.2453 25.67 35.8937 26.1053 35.8937C27.7379 35.8937 28.843 34.9309 28.843 34.0351V33.156C28.843 32.7207 29.1946 32.3691 29.63 32.3691C29.8393 32.3691 30.0151 32.1932 30.0151 31.9839V30.8118C30.0151 30.6025 29.8393 30.4267 29.63 30.4267H28.4579C28.0225 30.4267 27.6709 30.0751 27.6709 29.6398V26.1151C27.6709 25.6798 28.0225 25.3281 28.4579 25.3281H37.8598C38.2951 25.3281 38.6467 25.6798 38.6467 26.1151V29.6398C38.6467 30.0751 38.2951 30.4267 37.8598 30.4267H36.6877C36.4784 30.4267 36.3025 30.6025 36.3025 30.8118V31.9839C36.3025 32.1932 36.4784 32.3691 36.6877 32.3691C37.123 32.3691 37.4746 32.7207 37.4746 33.156V34.0351C37.4746 34.9309 38.5714 35.8937 40.2123 35.8937C40.6477 35.8937 40.9993 36.2453 40.9993 36.6807V38.4472C40.9993 39.8537 39.8523 41.0007 38.4458 41.0007H27.8718ZM27.2858 37.476C27.0765 37.476 26.9007 37.6518 26.9007 37.8611V38.4472C26.9007 38.983 27.336 39.4184 27.8718 39.4184H38.4458C38.9816 39.4184 39.417 38.983 39.417 38.4472V37.8611C39.417 37.6518 39.2412 37.476 39.0318 37.476H27.2858ZM30.8105 33.9514C30.6095 33.9514 30.4337 34.1021 30.4086 34.303C30.3751 34.663 30.2746 35.0063 30.0988 35.3411C30.0402 35.4584 30.0402 35.6007 30.1156 35.7179C30.1825 35.8351 30.3081 35.9021 30.4421 35.9021H35.8672C36.0011 35.9021 36.1267 35.8351 36.1937 35.7179C36.2607 35.6007 36.2691 35.4584 36.2105 35.3411C36.043 35.0146 35.9342 34.663 35.9007 34.303C35.8839 34.1021 35.7165 33.9514 35.5156 33.9514H30.8105ZM29.63 26.8937C29.4207 26.8937 29.2449 27.0695 29.2449 27.2788V28.4509C29.2449 28.6602 29.4207 28.836 29.63 28.836H30.8021C31.2374 28.836 31.5891 29.1877 31.5891 29.623V31.9756C31.5891 32.1849 31.7649 32.3607 31.9742 32.3607H34.3267C34.536 32.3607 34.7118 32.1849 34.7118 31.9756V29.623C34.7118 29.1877 35.0635 28.836 35.4988 28.836H36.6709C36.8802 28.836 37.056 28.6602 37.056 28.4509V27.2788C37.056 27.0695 36.8802 26.8937 36.6709 26.8937H29.63Z" fill="#003575"/>
<path d="M5.78698 41C5.35163 41 5 40.6484 5 40.213V5.78698C5 5.35163 5.35163 5 5.78698 5H40.2047C40.6484 5 41 5.35163 41 5.78698V22.5814C41 23.0167 40.6484 23.3684 40.213 23.3684H6.96744C6.75814 23.3684 6.58233 23.5442 6.58233 23.7535V39.0326C6.58233 39.2419 6.75814 39.4177 6.96744 39.4177H22.5814C23.0167 39.4177 23.3684 39.7693 23.3684 40.2047C23.3684 40.64 23.0167 40.9916 22.5814 40.9916H5.78698V41ZM6.96744 6.58233C6.75814 6.58233 6.58233 6.75814 6.58233 6.96744V21.4093C6.58233 21.6186 6.75814 21.7944 6.96744 21.7944H39.0409C39.2502 21.7944 39.426 21.6186 39.426 21.4093V6.96744C39.426 6.75814 39.2502 6.58233 39.0409 6.58233H6.96744Z" fill="#003575"/>
<path d="M10.4921 36.294C10.0567 36.294 9.70508 35.9423 9.70508 35.507V27.2772C9.70508 26.8419 10.0567 26.4902 10.4921 26.4902H16.7041C17.1395 26.4902 17.4911 26.8419 17.4911 27.2772V35.507C17.4911 35.9423 17.1395 36.294 16.7041 36.294H10.4921ZM11.6641 28.0726C11.4548 28.0726 11.279 28.2484 11.279 28.4577V34.3349C11.279 34.5442 11.4548 34.72 11.6641 34.72H15.5321C15.7414 34.72 15.9172 34.5442 15.9172 34.3349V28.4577C15.9172 28.2484 15.7414 28.0726 15.5321 28.0726H11.6641Z" fill="#003575"/>
<path d="M21.41 28.074C20.9747 28.074 20.623 27.7223 20.623 27.287C20.623 26.8516 20.9747 26.5 21.41 26.5H23.7626C24.1979 26.5 24.5496 26.8516 24.5496 27.287C24.5496 27.7223 24.1979 28.074 23.7626 28.074H21.41Z" fill="#003575"/>
<path d="M21.41 32.7693C20.9747 32.7693 20.623 32.4176 20.623 31.9823C20.623 31.5469 20.9747 31.1953 21.41 31.1953H23.7626C24.1979 31.1953 24.5496 31.5469 24.5496 31.9823C24.5496 32.4176 24.1979 32.7693 23.7626 32.7693H21.41Z" fill="#003575"/>
<path d="M10.4921 14.8044C10.0567 14.8044 9.70508 14.4528 9.70508 14.0174C9.70508 13.5821 10.0567 13.2305 10.4921 13.2305H35.5079C35.9432 13.2305 36.2948 13.5821 36.2948 14.0174C36.2948 14.4528 35.9432 14.8044 35.5079 14.8044H10.4921Z" fill="#003575"/>
<path d="M10.4921 11.279C10.0567 11.279 9.70508 10.9274 9.70508 10.4921C9.70508 10.0567 10.0567 9.70508 10.4921 9.70508H24.9339C25.3693 9.70508 25.7209 10.0567 25.7209 10.4921C25.7209 10.9274 25.3693 11.279 24.9339 11.279H10.4921Z" fill="#003575"/>
<path d="M10.4921 18.6716C10.0567 18.6716 9.70508 18.32 9.70508 17.8846C9.70508 17.4493 10.0567 17.0977 10.4921 17.0977H35.5079C35.9432 17.0977 36.2948 17.4493 36.2948 17.8846C36.2948 18.32 35.9432 18.6716 35.5079 18.6716H10.4921Z" fill="#003575"/>
</svg>
