<svg width="46" height="46" viewBox="0 0 46 46" fill="none" xmlns="http://www.w3.org/2000/svg">
<path d="M28.2421 33.9512H17.7402V41.1021H28.2421V33.9512Z" fill="white"/>
<path d="M41.1798 4.8125H5.0625V33.5889H41.1798V4.8125Z" fill="#73D7FF"/>
<path d="M41.0501 4.91602H21.791V19.3647H28.0092V23.821L33.7783 19.3647H41.0501V4.91602Z" fill="white"/>
<path d="M21.6175 18.5176C21.6175 21.4453 20.0629 23.8203 18.1456 23.8203C16.2284 23.8203 14.6738 21.4453 14.6738 18.5176C14.6738 15.5898 16.2284 13.2148 18.1456 13.2148C20.0629 13.2235 21.6175 15.5898 21.6175 18.5176Z" fill="white"/>
<path d="M15.3146 26.498C16.9555 27.8626 19.3391 27.8626 20.9887 26.498L26.015 29.4171L28.4159 29.849V33.9512H7.5332V30.3326L9.85639 28.9853L13.5787 28.4326L15.3146 26.498Z" fill="white"/>
<path d="M12.0923 42C11.6432 42 11.2805 41.6373 11.2805 41.1882C11.2805 40.7391 11.6432 40.3764 12.0923 40.3764H15.3914C15.4777 40.3764 15.5641 40.3505 15.6332 40.29C16.1427 39.8927 17.3432 38.58 17.3432 35.1255C17.3432 34.9095 17.1618 34.7282 16.9459 34.7282H6.91045C5.30409 34.7282 4 33.4241 4 31.8177V6.91045C4 5.30409 5.30409 4 6.91045 4H18.155C18.6041 4 18.9668 4.36273 18.9668 4.81182C18.9668 5.26091 18.6041 5.62364 18.155 5.62364H6.91045C6.21955 5.62364 5.63227 6.21091 5.63227 6.90182V31.8091C5.63227 31.9991 5.67545 32.1805 5.77045 32.3618C5.83955 32.5 5.97773 32.5864 6.12455 32.5864C6.15045 32.5864 6.16773 32.5864 6.19364 32.5777C6.36636 32.5518 6.50455 32.405 6.52182 32.2323C6.91045 28.9332 8.44773 28.2336 9.66545 28.2336C11.9455 28.2336 12.93 27.4736 13.8455 26.1523C14.0009 25.9364 14.2514 25.8068 14.5105 25.8068C14.6745 25.8068 14.8386 25.8586 14.9768 25.9536C15.1582 26.0745 15.2705 26.2645 15.3136 26.4805C15.3482 26.6964 15.305 26.9123 15.1755 27.085C13.7764 29.08 12.2305 29.8573 9.65682 29.8573C9.06955 29.8573 8.31818 30.3409 8.10227 32.6468C8.09364 32.7591 8.12818 32.8714 8.20591 32.9491C8.28364 33.0355 8.38727 33.0786 8.49955 33.0786H27.7845C27.8968 33.0786 28.0005 33.0355 28.0782 32.9491C28.1559 32.8627 28.1905 32.7591 28.1818 32.6468C27.9659 30.3409 27.2145 29.8573 26.6273 29.8573C24.0536 29.8573 22.5077 29.08 21.1086 27.085C20.9877 26.9036 20.9359 26.6877 20.9705 26.4805C21.005 26.2645 21.1259 26.0832 21.3073 25.9536C21.4455 25.8586 21.6095 25.8068 21.7736 25.8068C22.0414 25.8068 22.2918 25.9364 22.4386 26.1523C23.3627 27.465 24.3386 28.2336 26.6186 28.2336C27.9141 28.2336 29.5205 29.0109 29.8055 32.7159C29.8227 32.9232 29.9955 33.0786 30.2027 33.0786H39.0636C39.7718 33.0786 40.3418 32.5 40.3418 31.8005V23C40.3418 22.5509 40.7045 22.1882 41.1536 22.1882C41.6027 22.1882 41.9655 22.5509 41.9655 23V31.8177C41.9655 33.4241 40.6614 34.7282 39.055 34.7282H29.0627C28.8468 34.7282 28.6655 34.9095 28.6655 35.1255C28.6655 38.5886 29.8486 39.8927 30.3582 40.29C30.4273 40.3418 30.5136 40.3764 30.6 40.3764H33.9077C34.3568 40.3764 34.7195 40.7391 34.7195 41.1882C34.7195 41.6373 34.3568 42 33.9077 42H15.7282H12.0923ZM19.3641 34.7282C19.1482 34.7282 18.9668 34.9095 18.9668 35.1255C18.9668 36.9909 18.6559 38.5627 18.0341 39.7977C17.9736 39.9186 17.9823 40.0655 18.0514 40.1864C18.1205 40.3073 18.25 40.3764 18.3882 40.3764H27.6032C27.7414 40.3764 27.8709 40.3073 27.94 40.1864C28.0091 40.0655 28.0177 39.9186 27.9573 39.7977C27.3441 38.5627 27.0245 36.9909 27.0245 35.1255C27.0245 34.9095 26.8432 34.7282 26.6273 34.7282H19.3641Z" fill="#003575"/>
<path d="M26.636 10.4772C26.1869 10.4772 25.8242 10.1144 25.8242 9.66533C25.8242 9.21624 26.1869 8.85352 26.636 8.85352H36.3347C36.7838 8.85352 37.1465 9.21624 37.1465 9.66533C37.1465 10.1144 36.7838 10.4772 36.3347 10.4772H26.636Z" fill="#003575"/>
<path d="M26.636 15.3307C26.1869 15.3307 25.8242 14.9679 25.8242 14.5188C25.8242 14.0698 26.1869 13.707 26.636 13.707H36.3347C36.7838 13.707 37.1465 14.0698 37.1465 14.5188C37.1465 14.9679 36.7838 15.3307 36.3347 15.3307H26.636Z" fill="#003575"/>
<path d="M27.8531 25.0295C27.7322 25.0295 27.6113 25.0036 27.499 24.9518C27.2227 24.8136 27.0413 24.5286 27.0413 24.2177V20.5818C27.0413 20.3659 26.8599 20.1845 26.644 20.1845H25.4349C24.9858 20.1845 24.6231 19.8218 24.6231 19.3727C24.6231 18.9236 24.9858 18.5609 25.4349 18.5609H27.8618C28.3108 18.5609 28.6736 18.9236 28.6736 19.3727V21.6959C28.6736 21.8514 28.7599 21.9895 28.8981 22.0586C28.9499 22.0845 29.0104 22.1018 29.0709 22.1018C29.1572 22.1018 29.2436 22.0759 29.3213 22.0155L33.4149 18.7423C33.5618 18.63 33.7431 18.5609 33.9245 18.5609H39.6072C40.039 18.5609 40.3845 18.2155 40.3845 17.7836V6.02955C40.3845 5.81364 40.2031 5.63227 39.9872 5.63227H22.9995C22.7836 5.63227 22.6022 5.81364 22.6022 6.02955V10.8832C22.6022 11.3323 22.2395 11.695 21.7904 11.695C21.3413 11.695 20.9786 11.3323 20.9786 10.8832V6.02955C20.9699 4.90682 21.8854 4 22.9995 4H39.9699C41.0927 4 41.9995 4.90682 41.9995 6.02955V17.775C41.9995 19.105 40.9199 20.1845 39.5899 20.1845H34.3304C34.244 20.1845 34.149 20.2191 34.0799 20.2709L28.354 24.8568C28.2159 24.9605 28.0345 25.0295 27.8531 25.0295Z" fill="#003575"/>
<path d="M18.1469 25.0302C15.651 25.0302 13.6992 21.9298 13.6992 17.983C13.6992 13.0257 16.8083 12.4902 18.1469 12.4902C19.4856 12.4902 22.5947 13.0257 22.5947 17.983C22.6033 21.9298 20.6515 25.0302 18.1469 25.0302ZM18.1469 14.1139C17.4474 14.1139 15.3229 14.1139 15.3229 17.9743C15.3229 20.8589 16.6442 23.398 18.1469 23.398C19.6497 23.398 20.971 20.8675 20.971 17.9743C20.971 14.1139 18.8465 14.1139 18.1469 14.1139Z" fill="#003575"/>
</svg>
