<svg width="46" height="46" viewBox="0 0 46 46" fill="none" xmlns="http://www.w3.org/2000/svg">
<path d="M39.8552 6.17773H6.1543V13.0832H39.8552V6.17773Z" fill="#73D7FF"/>
<path d="M7.51908 40.2304H38.8554C39.6163 40.2304 40.23 39.6168 40.23 38.8559V14.4331C40.23 13.6722 39.6163 13.0586 38.8554 13.0586H7.51908C6.75817 13.0586 6.14453 13.6722 6.14453 14.4331V38.8559C6.15271 39.6168 6.76635 40.2304 7.51908 40.2304Z" fill="white"/>
<path d="M27.8439 35.8129C32.3626 35.8129 36.0257 32.1497 36.0257 27.631C36.0257 23.1123 32.3626 19.4492 27.8439 19.4492C23.3252 19.4492 19.6621 23.1123 19.6621 27.631C19.6621 32.1497 23.3252 35.8129 27.8439 35.8129Z" fill="#73D7FF"/>
<path d="M7.75727 41C6.18636 41 5 39.6827 5 37.9318V7.44636C5 6.16182 6.31727 5 7.75727 5H38.2427C39.6827 5 41 6.16182 41 7.44636V32.1882C41 32.6136 40.6564 32.9573 40.2309 32.9573C39.8055 32.9573 39.4618 32.6136 39.4618 32.1882V14.4745C39.4618 14.27 39.29 14.0982 39.0855 14.0982H6.92273C6.71818 14.0982 6.54636 14.27 6.54636 14.4745V37.9318C6.54636 38.8318 7.04545 39.4536 7.75727 39.4536H32.1882C32.6136 39.4536 32.9573 39.7973 32.9573 40.2227C32.9573 40.6482 32.6136 40.9918 32.1882 40.9918H7.75727V41ZM7.75727 6.54636C7.10273 6.54636 6.59545 7.06182 6.54636 7.40545C6.54636 7.42182 6.54636 7.43818 6.54636 7.45455V12.1755C6.54636 12.38 6.71818 12.5518 6.92273 12.5518H39.0855C39.29 12.5518 39.4618 12.38 39.4618 12.1755V7.44636C39.4618 7.43 39.4618 7.41364 39.4536 7.38909C39.4045 7.05364 38.8973 6.53818 38.2427 6.53818H7.75727V6.54636Z" fill="#003575"/>
<path d="M10.367 10.3668C10.8189 10.3668 11.1852 10.0005 11.1852 9.54865C11.1852 9.09678 10.8189 8.73047 10.367 8.73047C9.91514 8.73047 9.54883 9.09678 9.54883 9.54865C9.54883 10.0005 9.91514 10.3668 10.367 10.3668Z" fill="#003575"/>
<path d="M13.6404 10.3668C14.0923 10.3668 14.4586 10.0005 14.4586 9.54865C14.4586 9.09678 14.0923 8.73047 13.6404 8.73047C13.1886 8.73047 12.8223 9.09678 12.8223 9.54865C12.8223 10.0005 13.1886 10.3668 13.6404 10.3668Z" fill="#003575"/>
<path d="M16.9119 10.3668C17.3638 10.3668 17.7301 10.0005 17.7301 9.54865C17.7301 9.09678 17.3638 8.73047 16.9119 8.73047C16.4601 8.73047 16.0938 9.09678 16.0938 9.54865C16.0938 10.0005 16.4601 10.3668 16.9119 10.3668Z" fill="#003575"/>
<path d="M32.0652 27.3441C31.6397 27.3441 31.2961 27.0004 31.2961 26.575C31.2961 25.1022 30.0934 23.8995 28.6207 23.8995C28.1952 23.8995 27.8516 23.5559 27.8516 23.1304C27.8516 22.705 28.1952 22.3613 28.6207 22.3613C30.9443 22.3613 32.8343 24.2513 32.8343 26.575C32.8343 27.0004 32.4907 27.3441 32.0652 27.3441Z" fill="#003575"/>
<path d="M39.0764 39.8537C38.8719 39.8537 38.6755 39.7719 38.5283 39.6246L33.4801 34.5764C33.4064 34.5028 33.3083 34.4619 33.2101 34.4619C33.1283 34.4619 33.0464 34.4864 32.981 34.5437C31.4183 35.7628 29.5528 36.401 27.5892 36.401C22.7292 36.401 18.7773 32.4492 18.7773 27.5892C18.7773 22.7292 22.7292 18.7773 27.5892 18.7773C32.4492 18.7773 36.401 22.7292 36.401 27.5892C36.401 29.5528 35.7546 31.4183 34.5437 32.981C34.4292 33.1283 34.4373 33.341 34.5764 33.4801L39.6246 38.5283C39.9273 38.831 39.9273 39.3219 39.6246 39.6164C39.4773 39.7719 39.281 39.8537 39.0764 39.8537ZM27.5973 20.3237C23.5883 20.3237 20.3319 23.5883 20.3319 27.5892C20.3319 31.5901 23.5964 34.8546 27.5973 34.8546C31.6064 34.8546 34.8628 31.5901 34.8628 27.5892C34.8628 23.5883 31.5983 20.3237 27.5973 20.3237Z" fill="#003575"/>
</svg>
