<svg width="46" height="46" viewBox="0 0 46 46" fill="none" xmlns="http://www.w3.org/2000/svg">
<g clip-path="url(#clip0)">
<path d="M39.8965 35.3559V27.7319C39.8965 26.1584 41.0831 24.8828 42.549 24.8828C44.0148 24.8828 45.2015 26.1584 45.2015 27.7319V35.3559H39.8965Z" fill="white"/>
<path d="M40.8145 35.4463V29.2816C40.8145 28.0109 41.8515 26.9785 43.1279 26.9785C44.4043 26.9785 45.4414 28.0109 45.4414 29.2816V35.4414H40.8145V35.4463Z" fill="#73D7FF"/>
<path d="M36.1636 18.2216L28.2909 17.9238L9.83803 18.2216L8.36719 33.0726L23.0008 38.2049L37.6295 33.0726L36.1636 18.2216Z" fill="white"/>
<path d="M23.0004 39.0003C22.9107 39.0003 22.8209 38.9854 22.7362 38.9556L8.10252 33.8233C7.75351 33.6992 7.53912 33.3617 7.57402 32.9944L8.70083 21.5931C8.74571 21.1563 9.13461 20.8386 9.57337 20.8784C10.0121 20.923 10.3312 21.3102 10.2913 21.747L9.22435 32.5328L23.2647 37.4566C23.6785 37.6005 23.8979 38.0572 23.7533 38.4692C23.6386 38.7968 23.3295 39.0003 23.0004 39.0003Z" fill="#003575"/>
<path d="M24.8448 38.3555C24.5157 38.3555 24.2066 38.152 24.0919 37.8244C23.9473 37.4124 24.1617 36.9557 24.5805 36.8118L36.7761 32.5332L35.4349 18.9877L28.2601 18.7197C27.8214 18.7048 27.4773 18.3325 27.4923 17.8957C27.5073 17.4589 27.8812 17.1164 28.32 17.1313L36.1927 17.4242C36.5916 17.4391 36.9157 17.7468 36.9556 18.1389L38.4264 32.9948C38.4613 33.3572 38.2419 33.6997 37.8979 33.8237L25.109 38.3058C25.0193 38.3406 24.9345 38.3555 24.8448 38.3555Z" fill="#003575"/>
<path d="M22.9991 7.79492L0.796875 16.4216L22.9991 25.0433L45.2014 16.4216L22.9991 7.79492Z" fill="white"/>
<path d="M44.4336 16.5109L22.9941 7.79492C22.9941 7.79492 8.33557 13.915 1.59961 16.4216L23.049 24.537L44.4336 16.5109Z" fill="#73D7FF"/>
<path d="M23.0007 25.8373C22.901 25.8373 22.8062 25.8174 22.7115 25.7827L3.47088 18.3125C3.06203 18.1537 2.85761 17.6921 3.01716 17.2851C3.17671 16.8781 3.6404 16.6746 4.04924 16.8334L22.9957 24.1944L43.0042 16.4214L35.0317 13.3242C34.6228 13.1653 34.4184 12.7037 34.578 12.2967C34.7375 11.8897 35.2012 11.6862 35.61 11.845L45.4871 15.6819C45.7913 15.801 45.9957 16.0938 45.9957 16.4214C45.9957 16.749 45.7963 17.0419 45.4871 17.161L23.2899 25.7827C23.1951 25.8224 23.1004 25.8373 23.0007 25.8373Z" fill="#003575"/>
<path d="M3.75938 18.3658C3.66464 18.3658 3.56493 18.346 3.47019 18.3112L0.508563 17.1597C0.199436 17.0405 0 16.7477 0 16.4201C0 16.0925 0.199436 15.7997 0.508563 15.6805L22.7108 7.05389C22.9003 6.97943 23.1047 6.97943 23.2892 7.05389L35.6144 11.8437C36.0232 12.0025 36.2276 12.4642 36.0681 12.8712C35.9085 13.2782 35.4448 13.4817 35.036 13.3228L23 8.64719L2.99155 16.4201L4.04856 16.8321C4.4574 16.9909 4.66183 17.4525 4.50228 17.8595C4.38261 18.1722 4.07847 18.3658 3.75938 18.3658Z" fill="#003575"/>
<path d="M42.5504 25.6832C42.1116 25.6832 41.7527 25.3258 41.7527 24.889V18.0195L30.6391 16.863C30.2003 16.8183 29.8812 16.4262 29.9261 15.9894C29.971 15.5526 30.3648 15.2349 30.8036 15.2796L42.6352 16.5105C43.044 16.5502 43.3481 16.8927 43.3481 17.2997V24.889C43.3481 25.3258 42.9941 25.6832 42.5504 25.6832Z" fill="#003575"/>
<path d="M23.0009 38.4491C22.5621 38.4491 22.2031 38.0917 22.2031 37.6549V27.425C22.2031 26.9882 22.5621 26.6309 23.0009 26.6309C23.4396 26.6309 23.7986 26.9882 23.7986 27.425V37.6549C23.7986 38.0917 23.4396 38.4491 23.0009 38.4491Z" fill="#003575"/>
<path d="M29.2665 16.7135C29.2366 16.7135 29.2117 16.7135 29.1817 16.7085L22.9145 16.0583C22.4757 16.0136 22.1566 15.6215 22.2015 15.1847C22.2463 14.7479 22.6402 14.4302 23.079 14.4749L29.3463 15.1251C29.785 15.1698 30.1041 15.5619 30.0593 15.9987C30.0194 16.4107 29.6704 16.7135 29.2665 16.7135Z" fill="#003575"/>
<path d="M24.6096 15.2684C24.6096 15.9583 23.8866 16.5192 22.9991 16.5192C22.1116 16.5192 21.3887 15.9583 21.3887 15.2684C21.3887 14.5785 22.1116 14.0176 22.9991 14.0176C23.8866 14.0176 24.6096 14.5785 24.6096 15.2684Z" fill="white"/>
<path d="M23 17.3146C21.6737 17.3146 20.5918 16.3963 20.5918 15.2696C20.5918 14.1429 21.6737 13.2246 23 13.2246C24.3262 13.2246 25.4082 14.1429 25.4082 15.2696C25.4082 16.3963 24.3262 17.3146 23 17.3146ZM23 14.8129C22.5014 14.8129 22.1873 15.081 22.1873 15.2696C22.1873 15.4532 22.5014 15.7262 23 15.7262C23.4986 15.7262 23.8127 15.4582 23.8127 15.2696C23.8127 15.081 23.4936 14.8129 23 14.8129Z" fill="#003575"/>
<path d="M45.2015 36.1513H39.8965C39.4577 36.1513 39.0987 35.7939 39.0987 35.3571C39.0987 34.9203 39.4577 34.5629 39.8965 34.5629H44.3988V27.7331C44.3988 26.6014 43.5661 25.6782 42.544 25.6782C41.5219 25.6782 40.6892 26.6014 40.6892 27.7331V33.6794C40.6892 34.1162 40.3303 34.4736 39.8915 34.4736C39.4527 34.4736 39.0938 34.1162 39.0938 33.6794V27.7331C39.0938 25.7229 40.6394 24.0898 42.544 24.0898C44.4436 24.0898 45.9942 25.7229 45.9942 27.7331V35.3571C45.9992 35.7939 45.6403 36.1513 45.2015 36.1513Z" fill="#003575"/>
<path d="M41.7518 36.0219C41.338 36.0219 41.0039 35.6894 41.0039 35.2774V31.9965C41.0039 31.5845 41.338 31.252 41.7518 31.252C42.1656 31.252 42.4997 31.5845 42.4997 31.9965V35.2774C42.4997 35.6894 42.1656 36.0219 41.7518 36.0219Z" fill="#003575"/>
<path d="M43.3475 36.0219C42.9337 36.0219 42.5996 35.6894 42.5996 35.2774V31.9965C42.5996 31.5845 42.9337 31.252 43.3475 31.252C43.7613 31.252 44.0954 31.5845 44.0954 31.9965V35.2774C44.0954 35.6894 43.7613 36.0219 43.3475 36.0219Z" fill="#003575"/>
</g>
<defs>
<clipPath id="clip0">
<rect width="46" height="32" fill="white" transform="translate(0 7)"/>
</clipPath>
</defs>
</svg>
