<svg width="57" height="50" viewBox="0 0 57 50" fill="none" xmlns="http://www.w3.org/2000/svg">

<path d="M19.0752 23.7315H8.61829V43.9541H19.0752V23.7315Z" fill="#73D7FF"/>
<path d="M47.6543 23.7315H37.1974V43.9541H47.6543V23.7315Z" fill="#73D7FF"/>
<path d="M37.5248 18.3757H18.5296V43.9451H37.5248V18.3757Z" fill="white"/>
<path d="M37.7976 5.92748H28.0317V13.8111H37.7976V5.92748Z" fill="#73D7FF"/>
<path d="M47.1542 22.8676H38.2158C37.9885 22.8676 37.7976 22.6767 37.7976 22.4494V18.6212C37.7976 18.1484 37.4157 17.7665 36.9428 17.7665H29.2775C29.0502 17.7665 28.8592 17.5755 28.8592 17.3482V14.7931C28.8592 14.5658 29.0502 14.3748 29.2775 14.3748H39.4888C39.8071 14.3748 40.0981 14.2021 40.2436 13.9202C40.389 13.6383 40.38 13.3019 40.1981 13.0382L38.1158 9.91928C38.0249 9.78289 38.0249 9.59193 38.1158 9.45554L40.1981 6.33666C40.3709 6.07297 40.389 5.73653 40.2436 5.45465C40.0981 5.17277 39.8071 5 39.4888 5H28.0045C27.5316 5 27.1497 5.3819 27.1497 5.85474V17.3391C27.1497 17.5664 26.9588 17.7574 26.7315 17.7574H19.0752C18.6024 17.7574 18.2205 18.1393 18.2205 18.6121V22.4403C18.2205 22.6676 18.0295 22.8585 17.8022 22.8585H8.85474C8.3819 22.8676 8 23.2586 8 23.7315V44.1542C8 44.627 8.3819 45.0089 8.85474 45.0089H47.1451C47.6179 45.0089 47.9998 44.627 47.9998 44.1542V23.7315C48.0089 23.2586 47.627 22.8676 47.1542 22.8676ZM28.8592 7.13684C28.8592 6.90952 29.0502 6.71857 29.2775 6.71857H37.1065C37.2611 6.71857 37.4066 6.8004 37.4793 6.9368C37.552 7.07319 37.543 7.23686 37.4611 7.36416L36.2336 9.21003C36.0426 9.50101 36.0426 9.87382 36.2336 10.1648L37.4611 12.0107C37.543 12.138 37.552 12.3016 37.4793 12.438C37.4066 12.5744 37.2611 12.6563 37.1065 12.6563H29.2775C29.0502 12.6563 28.8592 12.4653 28.8592 12.238V7.13684V7.13684ZM18.2114 42.8721C18.2114 43.0994 18.0204 43.2904 17.7931 43.2904H10.1368C9.90952 43.2904 9.71857 43.0994 9.71857 42.8721V25.0045C9.71857 24.7771 9.90952 24.5862 10.1368 24.5862H17.7931C18.0204 24.5862 18.2114 24.7771 18.2114 25.0045V42.8721ZM36.079 42.8721C36.079 43.0994 35.888 43.2904 35.6607 43.2904H34.3877C34.1604 43.2904 33.9694 43.0994 33.9694 42.8721V39.044C33.9694 38.5711 33.5875 38.1892 33.1147 38.1892C32.6419 38.1892 32.26 38.5711 32.26 39.044V42.8721C32.26 43.0994 32.069 43.2904 31.8417 43.2904H24.1854C23.9581 43.2904 23.7672 43.0994 23.7672 42.8721V39.044C23.7672 38.5711 23.3853 38.1892 22.9124 38.1892C22.4396 38.1892 22.0577 38.5711 22.0577 39.044V42.8721C22.0577 43.0994 21.8667 43.2904 21.6394 43.2904H20.3664C20.1391 43.2904 19.9481 43.0994 19.9481 42.8721V19.8942C19.9481 19.6669 20.1391 19.476 20.3664 19.476H35.688C35.9153 19.476 36.1063 19.6669 36.1063 19.8942V42.8721H36.079ZM46.2904 42.8721C46.2904 43.0994 46.0994 43.2904 45.8721 43.2904H38.2158C37.9885 43.2904 37.7976 43.0994 37.7976 42.8721V25.0045C37.7976 24.7771 37.9885 24.5862 38.2158 24.5862H45.8721C46.0994 24.5862 46.2904 24.7771 46.2904 25.0045V42.8721Z" fill="#003575"/>
<path d="M23.7581 27.9779H22.0395V29.6964H23.7581V27.9779Z" fill="#003575"/>
<path d="M14.8288 27.9779H13.1102V29.6964H14.8288V27.9779Z" fill="#003575"/>
<path d="M14.8288 33.079H13.1102V34.7976H14.8288V33.079Z" fill="#003575"/>
<path d="M14.8288 38.1892H13.1102V39.9078H14.8288V38.1892Z" fill="#003575"/>
<path d="M42.9078 27.9779H41.1892V29.6964H42.9078V27.9779Z" fill="#003575"/>
<path d="M42.9078 33.079H41.1892V34.7976H42.9078V33.079Z" fill="#003575"/>
<path d="M42.9078 38.1892H41.1892V39.9078H42.9078V38.1892Z" fill="#003575"/>
<path d="M28.8683 27.9779H27.1497V29.6964H28.8683V27.9779Z" fill="#003575"/>
<path d="M33.9695 27.9779H32.2509V29.6964H33.9695V27.9779Z" fill="#003575"/>
<path d="M23.7581 33.079H22.0395V34.7976H23.7581V33.079Z" fill="#003575"/>
<path d="M28.8683 33.079H27.1497V34.7976H28.8683V33.079Z" fill="#003575"/>
<path d="M28.8683 38.1892H27.1497V39.9078H28.8683V38.1892Z" fill="#003575"/>
<path d="M33.9695 33.079H32.2509V34.7976H33.9695V33.079Z" fill="#003575"/>
<path d="M23.7581 22.8676H22.0395V24.5862H23.7581V22.8676Z" fill="#003575"/>
<path d="M28.8683 22.8676H27.1497V24.5862H28.8683V22.8676Z" fill="#003575"/>
<path d="M33.9695 22.8676H32.2509V24.5862H33.9695V22.8676Z" fill="#003575"/>
</svg>
